# Maintenance kit; generated from Tools/Art/build_equipment.py
o InspectionPanel
vt 0.062500 0.5
vt 0.187500 0.5
vt 0.312500 0.5
vt 0.437500 0.5
vt 0.562500 0.5
vt 0.687500 0.5
vt 0.812500 0.5
vt 0.937500 0.5
v -0.490000 -0.340000 -0.100000
v -0.490000 -0.375000 -0.065000
v -0.525000 -0.340000 -0.065000
v -0.490000 -0.375000 0.065000
v -0.490000 -0.340000 0.100000
v -0.525000 -0.340000 0.065000
v -0.490000 0.340000 -0.100000
v -0.525000 0.340000 -0.065000
v -0.490000 0.375000 -0.065000
v -0.490000 0.340000 0.100000
v -0.490000 0.375000 0.065000
v -0.525000 0.340000 0.065000
v 0.490000 -0.340000 -0.100000
v 0.525000 -0.340000 -0.065000
v 0.490000 -0.375000 -0.065000
v 0.490000 -0.340000 0.100000
v 0.490000 -0.375000 0.065000
v 0.525000 -0.340000 0.065000
v 0.490000 0.340000 -0.100000
v 0.490000 0.375000 -0.065000
v 0.525000 0.340000 -0.065000
v 0.490000 0.340000 0.100000
v 0.525000 0.340000 0.065000
v 0.490000 0.375000 0.065000
vn -0.577350 -0.577350 -0.577350
f 1/1/1 2/1/1 3/1/1
vn -0.577350 -0.577350 0.577350
f 4/1/2 5/1/2 6/1/2
vn -0.577350 0.577350 -0.577350
f 7/1/3 8/1/3 9/1/3
vn -0.577350 0.577350 0.577350
f 10/1/4 11/1/4 12/1/4
vn 0.577350 -0.577350 -0.577350
f 13/1/5 14/1/5 15/1/5
vn 0.577350 -0.577350 0.577350
f 16/1/6 17/1/6 18/1/6
vn 0.577350 0.577350 -0.577350
f 19/1/7 20/1/7 21/1/7
vn 0.577350 0.577350 0.577350
f 22/1/8 23/1/8 24/1/8
vn -0.707107 0.000000 -0.707107
f 7/1/9 1/1/9 3/1/9
vn -0.707107 0.000000 -0.707107
f 7/1/10 3/1/10 8/1/10
vn -0.707107 -0.707107 0.000000
f 2/1/11 4/1/11 6/1/11
vn -0.707107 -0.707107 0.000000
f 2/1/12 6/1/12 3/1/12
vn -0.707107 0.000000 0.707107
f 5/1/13 10/1/13 12/1/13
vn -0.707107 0.000000 0.707107
f 5/1/14 12/1/14 6/1/14
vn -0.707107 0.707107 0.000000
f 11/1/15 9/1/15 8/1/15
vn -0.707107 0.707107 0.000000
f 11/1/16 8/1/16 12/1/16
vn 0.000000 0.707107 -0.707107
f 19/1/17 7/1/17 9/1/17
vn 0.000000 0.707107 -0.707107
f 19/1/18 9/1/18 20/1/18
vn 0.000000 0.707107 0.707107
f 10/1/19 22/1/19 24/1/19
vn 0.000000 0.707107 0.707107
f 10/1/20 24/1/20 11/1/20
vn 0.707107 0.707107 0.000000
f 23/1/21 21/1/21 20/1/21
vn 0.707107 0.707107 0.000000
f 23/1/22 20/1/22 24/1/22
vn 0.707107 0.000000 -0.707107
f 13/1/23 19/1/23 21/1/23
vn 0.707107 0.000000 -0.707107
f 13/1/24 21/1/24 14/1/24
vn 0.707107 0.000000 0.707107
f 22/1/25 16/1/25 18/1/25
vn 0.707107 0.000000 0.707107
f 22/1/26 18/1/26 23/1/26
vn 0.707107 -0.707107 0.000000
f 17/1/27 15/1/27 14/1/27
vn 0.707107 -0.707107 0.000000
f 17/1/28 14/1/28 18/1/28
vn 0.000000 -0.707107 -0.707107
f 1/1/29 13/1/29 15/1/29
vn 0.000000 -0.707107 -0.707107
f 1/1/30 15/1/30 2/1/30
vn 0.000000 -0.707107 0.707107
f 16/1/31 5/1/31 4/1/31
vn 0.000000 -0.707107 0.707107
f 16/1/32 4/1/32 17/1/32
vn 0.000000 0.000000 -1.000000
f 7/1/33 19/1/33 13/1/33
vn 0.000000 0.000000 -1.000000
f 7/1/34 13/1/34 1/1/34
vn -1.000000 0.000000 0.000000
f 3/1/35 6/1/35 12/1/35
vn -1.000000 0.000000 0.000000
f 3/1/36 12/1/36 8/1/36
vn 0.000000 -1.000000 0.000000
f 15/1/37 17/1/37 4/1/37
vn 0.000000 -1.000000 0.000000
f 15/1/38 4/1/38 2/1/38
vn 0.000000 0.000000 1.000000
f 22/1/39 10/1/39 5/1/39
vn 0.000000 0.000000 1.000000
f 22/1/40 5/1/40 16/1/40
vn 0.000000 1.000000 0.000000
f 9/1/41 11/1/41 24/1/41
vn 0.000000 1.000000 0.000000
f 9/1/42 24/1/42 20/1/42
vn 1.000000 0.000000 0.000000
f 21/1/43 23/1/43 18/1/43
vn 1.000000 0.000000 0.000000
f 21/1/44 18/1/44 14/1/44
v -0.445000 -0.290000 -0.140000
v -0.445000 -0.300000 -0.130000
v -0.455000 -0.290000 -0.130000
v -0.445000 -0.300000 -0.100000
v -0.445000 -0.290000 -0.090000
v -0.455000 -0.290000 -0.100000
v -0.445000 0.290000 -0.140000
v -0.455000 0.290000 -0.130000
v -0.445000 0.300000 -0.130000
v -0.445000 0.290000 -0.090000
v -0.445000 0.300000 -0.100000
v -0.455000 0.290000 -0.100000
v 0.445000 -0.290000 -0.140000
v 0.455000 -0.290000 -0.130000
v 0.445000 -0.300000 -0.130000
v 0.445000 -0.290000 -0.090000
v 0.445000 -0.300000 -0.100000
v 0.455000 -0.290000 -0.100000
v 0.445000 0.290000 -0.140000
v 0.445000 0.300000 -0.130000
v 0.455000 0.290000 -0.130000
v 0.445000 0.290000 -0.090000
v 0.455000 0.290000 -0.100000
v 0.445000 0.300000 -0.100000
vn -0.577350 -0.577350 -0.577350
f 25/2/45 26/2/45 27/2/45
vn -0.577350 -0.577350 0.577350
f 28/2/46 29/2/46 30/2/46
vn -0.577350 0.577350 -0.577350
f 31/2/47 32/2/47 33/2/47
vn -0.577350 0.577350 0.577350
f 34/2/48 35/2/48 36/2/48
vn 0.577350 -0.577350 -0.577350
f 37/2/49 38/2/49 39/2/49
vn 0.577350 -0.577350 0.577350
f 40/2/50 41/2/50 42/2/50
vn 0.577350 0.577350 -0.577350
f 43/2/51 44/2/51 45/2/51
vn 0.577350 0.577350 0.577350
f 46/2/52 47/2/52 48/2/52
vn -0.707107 0.000000 -0.707106
f 31/2/53 25/2/53 27/2/53
vn -0.707107 -0.000000 -0.707106
f 31/2/54 27/2/54 32/2/54
vn -0.707107 -0.707107 0.000000
f 26/2/55 28/2/55 30/2/55
vn -0.707107 -0.707107 0.000000
f 26/2/56 30/2/56 27/2/56
vn -0.707107 0.000000 0.707106
f 29/2/57 34/2/57 36/2/57
vn -0.707107 0.000000 0.707106
f 29/2/58 36/2/58 30/2/58
vn -0.707107 0.707107 0.000000
f 35/2/59 33/2/59 32/2/59
vn -0.707107 0.707107 0.000000
f 35/2/60 32/2/60 36/2/60
vn 0.000000 0.707107 -0.707106
f 43/2/61 31/2/61 33/2/61
vn 0.000000 0.707107 -0.707106
f 43/2/62 33/2/62 44/2/62
vn 0.000000 0.707107 0.707106
f 34/2/63 46/2/63 48/2/63
vn 0.000000 0.707107 0.707106
f 34/2/64 48/2/64 35/2/64
vn 0.707107 0.707107 0.000000
f 47/2/65 45/2/65 44/2/65
vn 0.707107 0.707107 0.000000
f 47/2/66 44/2/66 48/2/66
vn 0.707107 0.000000 -0.707106
f 37/2/67 43/2/67 45/2/67
vn 0.707107 0.000000 -0.707106
f 37/2/68 45/2/68 38/2/68
vn 0.707107 0.000000 0.707106
f 46/2/69 40/2/69 42/2/69
vn 0.707107 -0.000000 0.707106
f 46/2/70 42/2/70 47/2/70
vn 0.707107 -0.707107 0.000000
f 41/2/71 39/2/71 38/2/71
vn 0.707107 -0.707107 0.000000
f 41/2/72 38/2/72 42/2/72
vn 0.000000 -0.707107 -0.707106
f 25/2/73 37/2/73 39/2/73
vn 0.000000 -0.707107 -0.707106
f 25/2/74 39/2/74 26/2/74
vn 0.000000 -0.707107 0.707106
f 40/2/75 29/2/75 28/2/75
vn 0.000000 -0.707107 0.707106
f 40/2/76 28/2/76 41/2/76
vn 0.000000 0.000000 -1.000000
f 31/2/77 43/2/77 37/2/77
vn 0.000000 0.000000 -1.000000
f 31/2/78 37/2/78 25/2/78
vn -1.000000 0.000000 0.000000
f 27/2/79 30/2/79 36/2/79
vn -1.000000 0.000000 0.000000
f 27/2/80 36/2/80 32/2/80
vn 0.000000 -1.000000 0.000000
f 39/2/81 41/2/81 28/2/81
vn 0.000000 -1.000000 0.000000
f 39/2/82 28/2/82 26/2/82
vn 0.000000 0.000000 1.000000
f 46/2/83 34/2/83 29/2/83
vn 0.000000 0.000000 1.000000
f 46/2/84 29/2/84 40/2/84
vn 0.000000 1.000000 0.000000
f 33/2/85 35/2/85 48/2/85
vn 0.000000 1.000000 0.000000
f 33/2/86 48/2/86 44/2/86
vn 1.000000 0.000000 0.000000
f 45/2/87 47/2/87 42/2/87
vn 1.000000 0.000000 0.000000
f 45/2/88 42/2/88 38/2/88
v -0.400000 -0.205000 -0.165000
v -0.400000 -0.205000 -0.135000
v -0.369689 -0.222500 -0.165000
v -0.369689 -0.222500 -0.135000
v -0.369689 -0.257500 -0.165000
v -0.369689 -0.257500 -0.135000
v -0.400000 -0.275000 -0.165000
v -0.400000 -0.275000 -0.135000
v -0.430311 -0.257500 -0.165000
v -0.430311 -0.257500 -0.135000
v -0.430311 -0.222500 -0.165000
v -0.430311 -0.222500 -0.135000
vn 0.500000 0.866025 0.000000
f 49/3/89 50/3/89 52/3/89
vn 0.500000 0.866025 0.000000
f 49/3/90 52/3/90 51/3/90
vn 1.000000 0.000000 0.000000
f 51/3/91 52/3/91 54/3/91
vn 1.000000 0.000000 0.000000
f 51/3/92 54/3/92 53/3/92
vn 0.500000 -0.866025 0.000000
f 53/3/93 54/3/93 56/3/93
vn 0.500000 -0.866025 0.000000
f 53/3/94 56/3/94 55/3/94
vn -0.500000 -0.866025 0.000000
f 55/3/95 56/3/95 58/3/95
vn -0.500000 -0.866025 0.000000
f 55/3/96 58/3/96 57/3/96
vn 0.000000 0.000000 1.000000
f 54/3/97 52/3/97 50/3/97
vn 0.000000 0.000000 1.000000
f 50/3/98 60/3/98 58/3/98
vn 0.000000 0.000000 1.000000
f 58/3/99 56/3/99 54/3/99
vn 0.000000 0.000000 1.000000
f 50/3/100 58/3/100 54/3/100
vn -1.000000 0.000000 0.000000
f 57/3/101 58/3/101 60/3/101
vn -1.000000 0.000000 0.000000
f 57/3/102 60/3/102 59/3/102
vn -0.500000 0.866025 0.000000
f 59/3/103 60/3/103 50/3/103
vn -0.500000 0.866025 0.000000
f 59/3/104 50/3/104 49/3/104
vn 0.000000 0.000000 -1.000000
f 59/3/105 49/3/105 51/3/105
vn 0.000000 0.000000 -1.000000
f 51/3/106 53/3/106 55/3/106
vn 0.000000 0.000000 -1.000000
f 55/3/107 57/3/107 59/3/107
vn 0.000000 0.000000 -1.000000
f 51/3/108 55/3/108 59/3/108
v -0.400000 0.275000 -0.165000
v -0.400000 0.275000 -0.135000
v -0.369689 0.257500 -0.165000
v -0.369689 0.257500 -0.135000
v -0.369689 0.222500 -0.165000
v -0.369689 0.222500 -0.135000
v -0.400000 0.205000 -0.165000
v -0.400000 0.205000 -0.135000
v -0.430311 0.222500 -0.165000
v -0.430311 0.222500 -0.135000
v -0.430311 0.257500 -0.165000
v -0.430311 0.257500 -0.135000
vn 0.500000 0.866025 0.000000
f 61/3/109 62/3/109 64/3/109
vn 0.500000 0.866025 0.000000
f 61/3/110 64/3/110 63/3/110
vn 1.000000 0.000000 0.000000
f 63/3/111 64/3/111 66/3/111
vn 1.000000 0.000000 0.000000
f 63/3/112 66/3/112 65/3/112
vn 0.500000 -0.866025 0.000000
f 65/3/113 66/3/113 68/3/113
vn 0.500000 -0.866025 0.000000
f 65/3/114 68/3/114 67/3/114
vn -0.500000 -0.866025 0.000000
f 67/3/115 68/3/115 70/3/115
vn -0.500000 -0.866025 0.000000
f 67/3/116 70/3/116 69/3/116
vn 0.000000 0.000000 1.000000
f 66/3/117 64/3/117 62/3/117
vn 0.000000 0.000000 1.000000
f 62/3/118 72/3/118 70/3/118
vn 0.000000 0.000000 1.000000
f 70/3/119 68/3/119 66/3/119
vn 0.000000 0.000000 1.000000
f 62/3/120 70/3/120 66/3/120
vn -1.000000 0.000000 0.000000
f 69/3/121 70/3/121 72/3/121
vn -1.000000 0.000000 0.000000
f 69/3/122 72/3/122 71/3/122
vn -0.500000 0.866025 0.000000
f 71/3/123 72/3/123 62/3/123
vn -0.500000 0.866025 0.000000
f 71/3/124 62/3/124 61/3/124
vn 0.000000 0.000000 -1.000000
f 71/3/125 61/3/125 63/3/125
vn 0.000000 0.000000 -1.000000
f 63/3/126 65/3/126 67/3/126
vn 0.000000 0.000000 -1.000000
f 67/3/127 69/3/127 71/3/127
vn 0.000000 0.000000 -1.000000
f 63/3/128 67/3/128 71/3/128
v 0.400000 -0.205000 -0.165000
v 0.400000 -0.205000 -0.135000
v 0.430311 -0.222500 -0.165000
v 0.430311 -0.222500 -0.135000
v 0.430311 -0.257500 -0.165000
v 0.430311 -0.257500 -0.135000
v 0.400000 -0.275000 -0.165000
v 0.400000 -0.275000 -0.135000
v 0.369689 -0.257500 -0.165000
v 0.369689 -0.257500 -0.135000
v 0.369689 -0.222500 -0.165000
v 0.369689 -0.222500 -0.135000
vn 0.500000 0.866025 0.000000
f 73/3/129 74/3/129 76/3/129
vn 0.500000 0.866025 0.000000
f 73/3/130 76/3/130 75/3/130
vn 1.000000 0.000000 0.000000
f 75/3/131 76/3/131 78/3/131
vn 1.000000 0.000000 0.000000
f 75/3/132 78/3/132 77/3/132
vn 0.500000 -0.866025 0.000000
f 77/3/133 78/3/133 80/3/133
vn 0.500000 -0.866025 0.000000
f 77/3/134 80/3/134 79/3/134
vn -0.500000 -0.866025 0.000000
f 79/3/135 80/3/135 82/3/135
vn -0.500000 -0.866025 0.000000
f 79/3/136 82/3/136 81/3/136
vn 0.000000 0.000000 1.000000
f 78/3/137 76/3/137 74/3/137
vn 0.000000 0.000000 1.000000
f 74/3/138 84/3/138 82/3/138
vn 0.000000 0.000000 1.000000
f 82/3/139 80/3/139 78/3/139
vn 0.000000 0.000000 1.000000
f 74/3/140 82/3/140 78/3/140
vn -1.000000 0.000000 0.000000
f 81/3/141 82/3/141 84/3/141
vn -1.000000 0.000000 0.000000
f 81/3/142 84/3/142 83/3/142
vn -0.500000 0.866025 0.000000
f 83/3/143 84/3/143 74/3/143
vn -0.500000 0.866025 0.000000
f 83/3/144 74/3/144 73/3/144
vn 0.000000 0.000000 -1.000000
f 83/3/145 73/3/145 75/3/145
vn 0.000000 0.000000 -1.000000
f 75/3/146 77/3/146 79/3/146
vn 0.000000 0.000000 -1.000000
f 79/3/147 81/3/147 83/3/147
vn 0.000000 0.000000 -1.000000
f 75/3/148 79/3/148 83/3/148
v 0.400000 0.275000 -0.165000
v 0.400000 0.275000 -0.135000
v 0.430311 0.257500 -0.165000
v 0.430311 0.257500 -0.135000
v 0.430311 0.222500 -0.165000
v 0.430311 0.222500 -0.135000
v 0.400000 0.205000 -0.165000
v 0.400000 0.205000 -0.135000
v 0.369689 0.222500 -0.165000
v 0.369689 0.222500 -0.135000
v 0.369689 0.257500 -0.165000
v 0.369689 0.257500 -0.135000
vn 0.500000 0.866025 0.000000
f 85/3/149 86/3/149 88/3/149
vn 0.500000 0.866025 0.000000
f 85/3/150 88/3/150 87/3/150
vn 1.000000 0.000000 0.000000
f 87/3/151 88/3/151 90/3/151
vn 1.000000 0.000000 0.000000
f 87/3/152 90/3/152 89/3/152
vn 0.500000 -0.866025 0.000000
f 89/3/153 90/3/153 92/3/153
vn 0.500000 -0.866025 0.000000
f 89/3/154 92/3/154 91/3/154
vn -0.500000 -0.866025 0.000000
f 91/3/155 92/3/155 94/3/155
vn -0.500000 -0.866025 0.000000
f 91/3/156 94/3/156 93/3/156
vn 0.000000 0.000000 1.000000
f 90/3/157 88/3/157 86/3/157
vn 0.000000 0.000000 1.000000
f 86/3/158 96/3/158 94/3/158
vn 0.000000 0.000000 1.000000
f 94/3/159 92/3/159 90/3/159
vn 0.000000 0.000000 1.000000
f 86/3/160 94/3/160 90/3/160
vn -1.000000 0.000000 0.000000
f 93/3/161 94/3/161 96/3/161
vn -1.000000 0.000000 0.000000
f 93/3/162 96/3/162 95/3/162
vn -0.500000 0.866025 0.000000
f 95/3/163 96/3/163 86/3/163
vn -0.500000 0.866025 0.000000
f 95/3/164 86/3/164 85/3/164
vn 0.000000 0.000000 -1.000000
f 95/3/165 85/3/165 87/3/165
vn 0.000000 0.000000 -1.000000
f 87/3/166 89/3/166 91/3/166
vn 0.000000 0.000000 -1.000000
f 91/3/167 93/3/167 95/3/167
vn 0.000000 0.000000 -1.000000
f 87/3/168 91/3/168 95/3/168
v -0.340000 -0.075000 -0.164500
v -0.340000 -0.080000 -0.159500
v -0.345000 -0.075000 -0.159500
v -0.340000 -0.080000 -0.144500
v -0.340000 -0.075000 -0.139500
v -0.345000 -0.075000 -0.144500
v -0.340000 0.195000 -0.164500
v -0.345000 0.195000 -0.159500
v -0.340000 0.200000 -0.159500
v -0.340000 0.195000 -0.139500
v -0.340000 0.200000 -0.144500
v -0.345000 0.195000 -0.144500
v -0.020000 -0.075000 -0.164500
v -0.015000 -0.075000 -0.159500
v -0.020000 -0.080000 -0.159500
v -0.020000 -0.075000 -0.139500
v -0.020000 -0.080000 -0.144500
v -0.015000 -0.075000 -0.144500
v -0.020000 0.195000 -0.164500
v -0.020000 0.200000 -0.159500
v -0.015000 0.195000 -0.159500
v -0.020000 0.195000 -0.139500
v -0.015000 0.195000 -0.144500
v -0.020000 0.200000 -0.144500
vn -0.577350 -0.577350 -0.577350
f 97/5/169 98/5/169 99/5/169
vn -0.577350 -0.577350 0.577350
f 100/5/170 101/5/170 102/5/170
vn -0.577350 0.577350 -0.577350
f 103/5/171 104/5/171 105/5/171
vn -0.577350 0.577350 0.577350
f 106/5/172 107/5/172 108/5/172
vn 0.577350 -0.577350 -0.577350
f 109/5/173 110/5/173 111/5/173
vn 0.577350 -0.577350 0.577350
f 112/5/174 113/5/174 114/5/174
vn 0.577350 0.577350 -0.577350
f 115/5/175 116/5/175 117/5/175
vn 0.577350 0.577350 0.577350
f 118/5/176 119/5/176 120/5/176
vn -0.707107 0.000000 -0.707106
f 103/5/177 97/5/177 99/5/177
vn -0.707107 -0.000000 -0.707106
f 103/5/178 99/5/178 104/5/178
vn -0.707107 -0.707107 0.000000
f 98/5/179 100/5/179 102/5/179
vn -0.707107 -0.707107 0.000000
f 98/5/180 102/5/180 99/5/180
vn -0.707107 0.000000 0.707106
f 101/5/181 106/5/181 108/5/181
vn -0.707107 0.000000 0.707106
f 101/5/182 108/5/182 102/5/182
vn -0.707107 0.707107 0.000000
f 107/5/183 105/5/183 104/5/183
vn -0.707107 0.707107 0.000000
f 107/5/184 104/5/184 108/5/184
vn 0.000000 0.707107 -0.707106
f 115/5/185 103/5/185 105/5/185
vn 0.000000 0.707107 -0.707106
f 115/5/186 105/5/186 116/5/186
vn 0.000000 0.707107 0.707106
f 106/5/187 118/5/187 120/5/187
vn 0.000000 0.707107 0.707106
f 106/5/188 120/5/188 107/5/188
vn 0.707107 0.707107 0.000000
f 119/5/189 117/5/189 116/5/189
vn 0.707107 0.707107 0.000000
f 119/5/190 116/5/190 120/5/190
vn 0.707107 0.000000 -0.707106
f 109/5/191 115/5/191 117/5/191
vn 0.707107 0.000000 -0.707106
f 109/5/192 117/5/192 110/5/192
vn 0.707107 0.000000 0.707106
f 118/5/193 112/5/193 114/5/193
vn 0.707107 -0.000000 0.707106
f 118/5/194 114/5/194 119/5/194
vn 0.707107 -0.707107 0.000000
f 113/5/195 111/5/195 110/5/195
vn 0.707107 -0.707107 0.000000
f 113/5/196 110/5/196 114/5/196
vn 0.000000 -0.707107 -0.707106
f 97/5/197 109/5/197 111/5/197
vn 0.000000 -0.707107 -0.707106
f 97/5/198 111/5/198 98/5/198
vn 0.000000 -0.707107 0.707106
f 112/5/199 101/5/199 100/5/199
vn 0.000000 -0.707107 0.707106
f 112/5/200 100/5/200 113/5/200
vn 0.000000 0.000000 -1.000000
f 103/5/201 115/5/201 109/5/201
vn 0.000000 0.000000 -1.000000
f 103/5/202 109/5/202 97/5/202
vn -1.000000 0.000000 0.000000
f 99/5/203 102/5/203 108/5/203
vn -1.000000 0.000000 0.000000
f 99/5/204 108/5/204 104/5/204
vn 0.000000 -1.000000 0.000000
f 111/5/205 113/5/205 100/5/205
vn 0.000000 -1.000000 0.000000
f 111/5/206 100/5/206 98/5/206
vn 0.000000 0.000000 1.000000
f 118/5/207 106/5/207 101/5/207
vn 0.000000 0.000000 1.000000
f 118/5/208 101/5/208 112/5/208
vn 0.000000 1.000000 0.000000
f 105/5/209 107/5/209 120/5/209
vn 0.000000 1.000000 0.000000
f 105/5/210 120/5/210 116/5/210
vn 1.000000 0.000000 0.000000
f 117/5/211 119/5/211 114/5/211
vn 1.000000 0.000000 0.000000
f 117/5/212 114/5/212 110/5/212
v -0.304000 -0.031500 -0.172000
v -0.304000 -0.032500 -0.171000
v -0.305000 -0.031500 -0.171000
v -0.304000 -0.032500 -0.165000
v -0.304000 -0.031500 -0.164000
v -0.305000 -0.031500 -0.165000
v -0.304000 -0.008500 -0.172000
v -0.305000 -0.008500 -0.171000
v -0.304000 -0.007500 -0.171000
v -0.304000 -0.008500 -0.164000
v -0.304000 -0.007500 -0.165000
v -0.305000 -0.008500 -0.165000
v -0.056000 -0.031500 -0.172000
v -0.055000 -0.031500 -0.171000
v -0.056000 -0.032500 -0.171000
v -0.056000 -0.031500 -0.164000
v -0.056000 -0.032500 -0.165000
v -0.055000 -0.031500 -0.165000
v -0.056000 -0.008500 -0.172000
v -0.056000 -0.007500 -0.171000
v -0.055000 -0.008500 -0.171000
v -0.056000 -0.008500 -0.164000
v -0.055000 -0.008500 -0.165000
v -0.056000 -0.007500 -0.165000
vn -0.577350 -0.577351 -0.577351
f 121/6/213 122/6/213 123/6/213
vn -0.577350 -0.577351 0.577351
f 124/6/214 125/6/214 126/6/214
vn -0.577350 0.577351 -0.577351
f 127/6/215 128/6/215 129/6/215
vn -0.577350 0.577351 0.577351
f 130/6/216 131/6/216 132/6/216
vn 0.577350 -0.577351 -0.577351
f 133/6/217 134/6/217 135/6/217
vn 0.577350 -0.577351 0.577351
f 136/6/218 137/6/218 138/6/218
vn 0.577350 0.577351 -0.577351
f 139/6/219 140/6/219 141/6/219
vn 0.577350 0.577351 0.577351
f 142/6/220 143/6/220 144/6/220
vn -0.707106 0.000000 -0.707107
f 127/6/221 121/6/221 123/6/221
vn -0.707106 0.000000 -0.707107
f 127/6/222 123/6/222 128/6/222
vn -0.707106 -0.707107 0.000000
f 122/6/223 124/6/223 126/6/223
vn -0.707106 -0.707107 0.000000
f 122/6/224 126/6/224 123/6/224
vn -0.707106 0.000000 0.707107
f 125/6/225 130/6/225 132/6/225
vn -0.707106 0.000000 0.707107
f 125/6/226 132/6/226 126/6/226
vn -0.707106 0.707107 0.000000
f 131/6/227 129/6/227 128/6/227
vn -0.707106 0.707107 0.000000
f 131/6/228 128/6/228 132/6/228
vn 0.000000 0.707107 -0.707107
f 139/6/229 127/6/229 129/6/229
vn 0.000000 0.707107 -0.707107
f 139/6/230 129/6/230 140/6/230
vn 0.000000 0.707107 0.707107
f 130/6/231 142/6/231 144/6/231
vn 0.000000 0.707107 0.707107
f 130/6/232 144/6/232 131/6/232
vn 0.707106 0.707107 0.000000
f 143/6/233 141/6/233 140/6/233
vn 0.707106 0.707107 0.000000
f 143/6/234 140/6/234 144/6/234
vn 0.707106 0.000000 -0.707107
f 133/6/235 139/6/235 141/6/235
vn 0.707106 0.000000 -0.707107
f 133/6/236 141/6/236 134/6/236
vn 0.707106 0.000000 0.707107
f 142/6/237 136/6/237 138/6/237
vn 0.707106 0.000000 0.707107
f 142/6/238 138/6/238 143/6/238
vn 0.707106 -0.707107 0.000000
f 137/6/239 135/6/239 134/6/239
vn 0.707106 -0.707107 0.000000
f 137/6/240 134/6/240 138/6/240
vn 0.000000 -0.707107 -0.707107
f 121/6/241 133/6/241 135/6/241
vn 0.000000 -0.707107 -0.707107
f 121/6/242 135/6/242 122/6/242
vn 0.000000 -0.707107 0.707107
f 136/6/243 125/6/243 124/6/243
vn 0.000000 -0.707107 0.707107
f 136/6/244 124/6/244 137/6/244
vn 0.000000 0.000000 -1.000000
f 127/6/245 139/6/245 133/6/245
vn 0.000000 0.000000 -1.000000
f 127/6/246 133/6/246 121/6/246
vn -1.000000 0.000000 0.000000
f 123/6/247 126/6/247 132/6/247
vn -1.000000 0.000000 0.000000
f 123/6/248 132/6/248 128/6/248
vn 0.000000 -1.000000 0.000000
f 135/6/249 137/6/249 124/6/249
vn 0.000000 -1.000000 0.000000
f 135/6/250 124/6/250 122/6/250
vn 0.000000 0.000000 1.000000
f 142/6/251 130/6/251 125/6/251
vn 0.000000 0.000000 1.000000
f 142/6/252 125/6/252 136/6/252
vn 0.000000 1.000000 0.000000
f 129/6/253 131/6/253 144/6/253
vn 0.000000 1.000000 0.000000
f 129/6/254 144/6/254 140/6/254
vn 1.000000 0.000000 0.000000
f 141/6/255 143/6/255 138/6/255
vn 1.000000 0.000000 0.000000
f 141/6/256 138/6/256 134/6/256
v -0.304000 0.048500 -0.172000
v -0.304000 0.047500 -0.171000
v -0.305000 0.048500 -0.171000
v -0.304000 0.047500 -0.165000
v -0.304000 0.048500 -0.164000
v -0.305000 0.048500 -0.165000
v -0.304000 0.071500 -0.172000
v -0.305000 0.071500 -0.171000
v -0.304000 0.072500 -0.171000
v -0.304000 0.071500 -0.164000
v -0.304000 0.072500 -0.165000
v -0.305000 0.071500 -0.165000
v -0.056000 0.048500 -0.172000
v -0.055000 0.048500 -0.171000
v -0.056000 0.047500 -0.171000
v -0.056000 0.048500 -0.164000
v -0.056000 0.047500 -0.165000
v -0.055000 0.048500 -0.165000
v -0.056000 0.071500 -0.172000
v -0.056000 0.072500 -0.171000
v -0.055000 0.071500 -0.171000
v -0.056000 0.071500 -0.164000
v -0.055000 0.071500 -0.165000
v -0.056000 0.072500 -0.165000
vn -0.577350 -0.577351 -0.577351
f 145/6/257 146/6/257 147/6/257
vn -0.577350 -0.577351 0.577351
f 148/6/258 149/6/258 150/6/258
vn -0.577350 0.577351 -0.577351
f 151/6/259 152/6/259 153/6/259
vn -0.577350 0.577351 0.577351
f 154/6/260 155/6/260 156/6/260
vn 0.577350 -0.577351 -0.577351
f 157/6/261 158/6/261 159/6/261
vn 0.577350 -0.577351 0.577351
f 160/6/262 161/6/262 162/6/262
vn 0.577350 0.577351 -0.577351
f 163/6/263 164/6/263 165/6/263
vn 0.577350 0.577351 0.577351
f 166/6/264 167/6/264 168/6/264
vn -0.707106 0.000000 -0.707107
f 151/6/265 145/6/265 147/6/265
vn -0.707106 0.000000 -0.707107
f 151/6/266 147/6/266 152/6/266
vn -0.707106 -0.707107 0.000000
f 146/6/267 148/6/267 150/6/267
vn -0.707106 -0.707107 0.000000
f 146/6/268 150/6/268 147/6/268
vn -0.707106 0.000000 0.707107
f 149/6/269 154/6/269 156/6/269
vn -0.707106 0.000000 0.707107
f 149/6/270 156/6/270 150/6/270
vn -0.707106 0.707107 0.000000
f 155/6/271 153/6/271 152/6/271
vn -0.707106 0.707107 0.000000
f 155/6/272 152/6/272 156/6/272
vn 0.000000 0.707107 -0.707107
f 163/6/273 151/6/273 153/6/273
vn 0.000000 0.707107 -0.707107
f 163/6/274 153/6/274 164/6/274
vn 0.000000 0.707107 0.707107
f 154/6/275 166/6/275 168/6/275
vn 0.000000 0.707107 0.707107
f 154/6/276 168/6/276 155/6/276
vn 0.707106 0.707107 0.000000
f 167/6/277 165/6/277 164/6/277
vn 0.707106 0.707107 0.000000
f 167/6/278 164/6/278 168/6/278
vn 0.707106 0.000000 -0.707107
f 157/6/279 163/6/279 165/6/279
vn 0.707106 0.000000 -0.707107
f 157/6/280 165/6/280 158/6/280
vn 0.707106 0.000000 0.707107
f 166/6/281 160/6/281 162/6/281
vn 0.707106 0.000000 0.707107
f 166/6/282 162/6/282 167/6/282
vn 0.707106 -0.707107 0.000000
f 161/6/283 159/6/283 158/6/283
vn 0.707106 -0.707107 0.000000
f 161/6/284 158/6/284 162/6/284
vn 0.000000 -0.707107 -0.707107
f 145/6/285 157/6/285 159/6/285
vn 0.000000 -0.707107 -0.707107
f 145/6/286 159/6/286 146/6/286
vn 0.000000 -0.707107 0.707107
f 160/6/287 149/6/287 148/6/287
vn 0.000000 -0.707107 0.707107
f 160/6/288 148/6/288 161/6/288
vn 0.000000 0.000000 -1.000000
f 151/6/289 163/6/289 157/6/289
vn 0.000000 0.000000 -1.000000
f 151/6/290 157/6/290 145/6/290
vn -1.000000 0.000000 0.000000
f 147/6/291 150/6/291 156/6/291
vn -1.000000 0.000000 0.000000
f 147/6/292 156/6/292 152/6/292
vn 0.000000 -1.000000 0.000000
f 159/6/293 161/6/293 148/6/293
vn 0.000000 -1.000000 0.000000
f 159/6/294 148/6/294 146/6/294
vn 0.000000 0.000000 1.000000
f 166/6/295 154/6/295 149/6/295
vn 0.000000 0.000000 1.000000
f 166/6/296 149/6/296 160/6/296
vn 0.000000 1.000000 0.000000
f 153/6/297 155/6/297 168/6/297
vn 0.000000 1.000000 0.000000
f 153/6/298 168/6/298 164/6/298
vn 1.000000 0.000000 0.000000
f 165/6/299 167/6/299 162/6/299
vn 1.000000 0.000000 0.000000
f 165/6/300 162/6/300 158/6/300
v -0.304000 0.128500 -0.172000
v -0.304000 0.127500 -0.171000
v -0.305000 0.128500 -0.171000
v -0.304000 0.127500 -0.165000
v -0.304000 0.128500 -0.164000
v -0.305000 0.128500 -0.165000
v -0.304000 0.151500 -0.172000
v -0.305000 0.151500 -0.171000
v -0.304000 0.152500 -0.171000
v -0.304000 0.151500 -0.164000
v -0.304000 0.152500 -0.165000
v -0.305000 0.151500 -0.165000
v -0.056000 0.128500 -0.172000
v -0.055000 0.128500 -0.171000
v -0.056000 0.127500 -0.171000
v -0.056000 0.128500 -0.164000
v -0.056000 0.127500 -0.165000
v -0.055000 0.128500 -0.165000
v -0.056000 0.151500 -0.172000
v -0.056000 0.152500 -0.171000
v -0.055000 0.151500 -0.171000
v -0.056000 0.151500 -0.164000
v -0.055000 0.151500 -0.165000
v -0.056000 0.152500 -0.165000
vn -0.577350 -0.577351 -0.577351
f 169/6/301 170/6/301 171/6/301
vn -0.577350 -0.577351 0.577351
f 172/6/302 173/6/302 174/6/302
vn -0.577350 0.577351 -0.577351
f 175/6/303 176/6/303 177/6/303
vn -0.577350 0.577351 0.577351
f 178/6/304 179/6/304 180/6/304
vn 0.577350 -0.577351 -0.577351
f 181/6/305 182/6/305 183/6/305
vn 0.577350 -0.577351 0.577351
f 184/6/306 185/6/306 186/6/306
vn 0.577350 0.577351 -0.577351
f 187/6/307 188/6/307 189/6/307
vn 0.577350 0.577351 0.577351
f 190/6/308 191/6/308 192/6/308
vn -0.707106 0.000000 -0.707107
f 175/6/309 169/6/309 171/6/309
vn -0.707106 0.000000 -0.707107
f 175/6/310 171/6/310 176/6/310
vn -0.707106 -0.707107 0.000000
f 170/6/311 172/6/311 174/6/311
vn -0.707106 -0.707107 0.000000
f 170/6/312 174/6/312 171/6/312
vn -0.707106 0.000000 0.707107
f 173/6/313 178/6/313 180/6/313
vn -0.707106 0.000000 0.707107
f 173/6/314 180/6/314 174/6/314
vn -0.707106 0.707107 0.000000
f 179/6/315 177/6/315 176/6/315
vn -0.707106 0.707107 0.000000
f 179/6/316 176/6/316 180/6/316
vn 0.000000 0.707107 -0.707107
f 187/6/317 175/6/317 177/6/317
vn 0.000000 0.707107 -0.707107
f 187/6/318 177/6/318 188/6/318
vn 0.000000 0.707107 0.707107
f 178/6/319 190/6/319 192/6/319
vn 0.000000 0.707107 0.707107
f 178/6/320 192/6/320 179/6/320
vn 0.707106 0.707107 0.000000
f 191/6/321 189/6/321 188/6/321
vn 0.707106 0.707107 0.000000
f 191/6/322 188/6/322 192/6/322
vn 0.707106 0.000000 -0.707107
f 181/6/323 187/6/323 189/6/323
vn 0.707106 0.000000 -0.707107
f 181/6/324 189/6/324 182/6/324
vn 0.707106 0.000000 0.707107
f 190/6/325 184/6/325 186/6/325
vn 0.707106 0.000000 0.707107
f 190/6/326 186/6/326 191/6/326
vn 0.707106 -0.707107 0.000000
f 185/6/327 183/6/327 182/6/327
vn 0.707106 -0.707107 0.000000
f 185/6/328 182/6/328 186/6/328
vn 0.000000 -0.707107 -0.707107
f 169/6/329 181/6/329 183/6/329
vn 0.000000 -0.707107 -0.707107
f 169/6/330 183/6/330 170/6/330
vn 0.000000 -0.707107 0.707107
f 184/6/331 173/6/331 172/6/331
vn 0.000000 -0.707107 0.707107
f 184/6/332 172/6/332 185/6/332
vn 0.000000 0.000000 -1.000000
f 175/6/333 187/6/333 181/6/333
vn 0.000000 0.000000 -1.000000
f 175/6/334 181/6/334 169/6/334
vn -1.000000 0.000000 0.000000
f 171/6/335 174/6/335 180/6/335
vn -1.000000 0.000000 0.000000
f 171/6/336 180/6/336 176/6/336
vn 0.000000 -1.000000 0.000000
f 183/6/337 185/6/337 172/6/337
vn 0.000000 -1.000000 0.000000
f 183/6/338 172/6/338 170/6/338
vn 0.000000 0.000000 1.000000
f 190/6/339 178/6/339 173/6/339
vn 0.000000 0.000000 1.000000
f 190/6/340 173/6/340 184/6/340
vn 0.000000 1.000000 0.000000
f 177/6/341 179/6/341 192/6/341
vn 0.000000 1.000000 0.000000
f 177/6/342 192/6/342 188/6/342
vn 1.000000 0.000000 0.000000
f 189/6/343 191/6/343 186/6/343
vn 1.000000 0.000000 0.000000
f 189/6/344 186/6/344 182/6/344
v 0.083000 -0.169500 -0.159500
v 0.083000 -0.172500 -0.156500
v 0.080000 -0.169500 -0.156500
v 0.083000 -0.172500 -0.137500
v 0.083000 -0.169500 -0.134500
v 0.080000 -0.169500 -0.137500
v 0.083000 -0.150500 -0.159500
v 0.080000 -0.150500 -0.156500
v 0.083000 -0.147500 -0.156500
v 0.083000 -0.150500 -0.134500
v 0.083000 -0.147500 -0.137500
v 0.080000 -0.150500 -0.137500
v 0.317000 -0.169500 -0.159500
v 0.320000 -0.169500 -0.156500
v 0.317000 -0.172500 -0.156500
v 0.317000 -0.169500 -0.134500
v 0.317000 -0.172500 -0.137500
v 0.320000 -0.169500 -0.137500
v 0.317000 -0.150500 -0.159500
v 0.317000 -0.147500 -0.156500
v 0.320000 -0.150500 -0.156500
v 0.317000 -0.150500 -0.134500
v 0.320000 -0.150500 -0.137500
v 0.317000 -0.147500 -0.137500
vn -0.577350 -0.577350 -0.577350
f 193/5/345 194/5/345 195/5/345
vn -0.577350 -0.577350 0.577350
f 196/5/346 197/5/346 198/5/346
vn -0.577350 0.577350 -0.577350
f 199/5/347 200/5/347 201/5/347
vn -0.577350 0.577350 0.577350
f 202/5/348 203/5/348 204/5/348
vn 0.577350 -0.577350 -0.577350
f 205/5/349 206/5/349 207/5/349
vn 0.577350 -0.577350 0.577350
f 208/5/350 209/5/350 210/5/350
vn 0.577350 0.577350 -0.577350
f 211/5/351 212/5/351 213/5/351
vn 0.577350 0.577350 0.577350
f 214/5/352 215/5/352 216/5/352
vn -0.707107 0.000000 -0.707107
f 199/5/353 193/5/353 195/5/353
vn -0.707107 0.000000 -0.707107
f 199/5/354 195/5/354 200/5/354
vn -0.707107 -0.707107 0.000000
f 194/5/355 196/5/355 198/5/355
vn -0.707107 -0.707107 0.000000
f 194/5/356 198/5/356 195/5/356
vn -0.707107 0.000000 0.707107
f 197/5/357 202/5/357 204/5/357
vn -0.707107 0.000000 0.707107
f 197/5/358 204/5/358 198/5/358
vn -0.707107 0.707107 0.000000
f 203/5/359 201/5/359 200/5/359
vn -0.707107 0.707107 0.000000
f 203/5/360 200/5/360 204/5/360
vn 0.000000 0.707107 -0.707107
f 211/5/361 199/5/361 201/5/361
vn 0.000000 0.707107 -0.707107
f 211/5/362 201/5/362 212/5/362
vn 0.000000 0.707107 0.707107
f 202/5/363 214/5/363 216/5/363
vn 0.000000 0.707107 0.707107
f 202/5/364 216/5/364 203/5/364
vn 0.707107 0.707107 0.000000
f 215/5/365 213/5/365 212/5/365
vn 0.707107 0.707107 0.000000
f 215/5/366 212/5/366 216/5/366
vn 0.707107 0.000000 -0.707107
f 205/5/367 211/5/367 213/5/367
vn 0.707107 0.000000 -0.707107
f 205/5/368 213/5/368 206/5/368
vn 0.707107 0.000000 0.707107
f 214/5/369 208/5/369 210/5/369
vn 0.707107 0.000000 0.707107
f 214/5/370 210/5/370 215/5/370
vn 0.707107 -0.707107 0.000000
f 209/5/371 207/5/371 206/5/371
vn 0.707107 -0.707107 0.000000
f 209/5/372 206/5/372 210/5/372
vn 0.000000 -0.707107 -0.707107
f 193/5/373 205/5/373 207/5/373
vn 0.000000 -0.707107 -0.707107
f 193/5/374 207/5/374 194/5/374
vn 0.000000 -0.707107 0.707107
f 208/5/375 197/5/375 196/5/375
vn 0.000000 -0.707107 0.707107
f 208/5/376 196/5/376 209/5/376
vn 0.000000 0.000000 -1.000000
f 199/5/377 211/5/377 205/5/377
vn 0.000000 0.000000 -1.000000
f 199/5/378 205/5/378 193/5/378
vn -1.000000 0.000000 0.000000
f 195/5/379 198/5/379 204/5/379
vn -1.000000 0.000000 0.000000
f 195/5/380 204/5/380 200/5/380
vn 0.000000 -1.000000 0.000000
f 207/5/381 209/5/381 196/5/381
vn 0.000000 -1.000000 0.000000
f 207/5/382 196/5/382 194/5/382
vn 0.000000 0.000000 1.000000
f 214/5/383 202/5/383 197/5/383
vn 0.000000 0.000000 1.000000
f 214/5/384 197/5/384 208/5/384
vn 0.000000 1.000000 0.000000
f 201/5/385 203/5/385 216/5/385
vn 0.000000 1.000000 0.000000
f 201/5/386 216/5/386 212/5/386
vn 1.000000 0.000000 0.000000
f 213/5/387 215/5/387 210/5/387
vn 1.000000 0.000000 0.000000
f 213/5/388 210/5/388 206/5/388
v 0.083000 -0.089500 -0.159500
v 0.083000 -0.092500 -0.156500
v 0.080000 -0.089500 -0.156500
v 0.083000 -0.092500 -0.137500
v 0.083000 -0.089500 -0.134500
v 0.080000 -0.089500 -0.137500
v 0.083000 -0.070500 -0.159500
v 0.080000 -0.070500 -0.156500
v 0.083000 -0.067500 -0.156500
v 0.083000 -0.070500 -0.134500
v 0.083000 -0.067500 -0.137500
v 0.080000 -0.070500 -0.137500
v 0.317000 -0.089500 -0.159500
v 0.320000 -0.089500 -0.156500
v 0.317000 -0.092500 -0.156500
v 0.317000 -0.089500 -0.134500
v 0.317000 -0.092500 -0.137500
v 0.320000 -0.089500 -0.137500
v 0.317000 -0.070500 -0.159500
v 0.317000 -0.067500 -0.156500
v 0.320000 -0.070500 -0.156500
v 0.317000 -0.070500 -0.134500
v 0.320000 -0.070500 -0.137500
v 0.317000 -0.067500 -0.137500
vn -0.577350 -0.577350 -0.577350
f 217/5/389 218/5/389 219/5/389
vn -0.577350 -0.577350 0.577350
f 220/5/390 221/5/390 222/5/390
vn -0.577350 0.577350 -0.577350
f 223/5/391 224/5/391 225/5/391
vn -0.577350 0.577350 0.577350
f 226/5/392 227/5/392 228/5/392
vn 0.577350 -0.577350 -0.577350
f 229/5/393 230/5/393 231/5/393
vn 0.577350 -0.577350 0.577350
f 232/5/394 233/5/394 234/5/394
vn 0.577350 0.577350 -0.577350
f 235/5/395 236/5/395 237/5/395
vn 0.577350 0.577350 0.577350
f 238/5/396 239/5/396 240/5/396
vn -0.707107 0.000000 -0.707107
f 223/5/397 217/5/397 219/5/397
vn -0.707107 0.000000 -0.707107
f 223/5/398 219/5/398 224/5/398
vn -0.707107 -0.707107 0.000000
f 218/5/399 220/5/399 222/5/399
vn -0.707107 -0.707107 0.000000
f 218/5/400 222/5/400 219/5/400
vn -0.707107 0.000000 0.707107
f 221/5/401 226/5/401 228/5/401
vn -0.707107 0.000000 0.707107
f 221/5/402 228/5/402 222/5/402
vn -0.707107 0.707107 0.000000
f 227/5/403 225/5/403 224/5/403
vn -0.707107 0.707107 0.000000
f 227/5/404 224/5/404 228/5/404
vn 0.000000 0.707107 -0.707107
f 235/5/405 223/5/405 225/5/405
vn 0.000000 0.707107 -0.707107
f 235/5/406 225/5/406 236/5/406
vn 0.000000 0.707107 0.707107
f 226/5/407 238/5/407 240/5/407
vn 0.000000 0.707107 0.707107
f 226/5/408 240/5/408 227/5/408
vn 0.707107 0.707107 0.000000
f 239/5/409 237/5/409 236/5/409
vn 0.707107 0.707107 0.000000
f 239/5/410 236/5/410 240/5/410
vn 0.707107 0.000000 -0.707107
f 229/5/411 235/5/411 237/5/411
vn 0.707107 0.000000 -0.707107
f 229/5/412 237/5/412 230/5/412
vn 0.707107 0.000000 0.707107
f 238/5/413 232/5/413 234/5/413
vn 0.707107 0.000000 0.707107
f 238/5/414 234/5/414 239/5/414
vn 0.707107 -0.707107 0.000000
f 233/5/415 231/5/415 230/5/415
vn 0.707107 -0.707107 0.000000
f 233/5/416 230/5/416 234/5/416
vn 0.000000 -0.707107 -0.707107
f 217/5/417 229/5/417 231/5/417
vn 0.000000 -0.707107 -0.707107
f 217/5/418 231/5/418 218/5/418
vn 0.000000 -0.707107 0.707107
f 232/5/419 221/5/419 220/5/419
vn 0.000000 -0.707107 0.707107
f 232/5/420 220/5/420 233/5/420
vn 0.000000 0.000000 -1.000000
f 223/5/421 235/5/421 229/5/421
vn 0.000000 0.000000 -1.000000
f 223/5/422 229/5/422 217/5/422
vn -1.000000 0.000000 0.000000
f 219/5/423 222/5/423 228/5/423
vn -1.000000 0.000000 0.000000
f 219/5/424 228/5/424 224/5/424
vn 0.000000 -1.000000 0.000000
f 231/5/425 233/5/425 220/5/425
vn 0.000000 -1.000000 0.000000
f 231/5/426 220/5/426 218/5/426
vn 0.000000 0.000000 1.000000
f 238/5/427 226/5/427 221/5/427
vn 0.000000 0.000000 1.000000
f 238/5/428 221/5/428 232/5/428
vn 0.000000 1.000000 0.000000
f 225/5/429 227/5/429 240/5/429
vn 0.000000 1.000000 0.000000
f 225/5/430 240/5/430 236/5/430
vn 1.000000 0.000000 0.000000
f 237/5/431 239/5/431 234/5/431
vn 1.000000 0.000000 0.000000
f 237/5/432 234/5/432 230/5/432
v 0.083000 -0.009500 -0.159500
v 0.083000 -0.012500 -0.156500
v 0.080000 -0.009500 -0.156500
v 0.083000 -0.012500 -0.137500
v 0.083000 -0.009500 -0.134500
v 0.080000 -0.009500 -0.137500
v 0.083000 0.009500 -0.159500
v 0.080000 0.009500 -0.156500
v 0.083000 0.012500 -0.156500
v 0.083000 0.009500 -0.134500
v 0.083000 0.012500 -0.137500
v 0.080000 0.009500 -0.137500
v 0.317000 -0.009500 -0.159500
v 0.320000 -0.009500 -0.156500
v 0.317000 -0.012500 -0.156500
v 0.317000 -0.009500 -0.134500
v 0.317000 -0.012500 -0.137500
v 0.320000 -0.009500 -0.137500
v 0.317000 0.009500 -0.159500
v 0.317000 0.012500 -0.156500
v 0.320000 0.009500 -0.156500
v 0.317000 0.009500 -0.134500
v 0.320000 0.009500 -0.137500
v 0.317000 0.012500 -0.137500
vn -0.577350 -0.577350 -0.577350
f 241/5/433 242/5/433 243/5/433
vn -0.577350 -0.577350 0.577350
f 244/5/434 245/5/434 246/5/434
vn -0.577350 0.577350 -0.577350
f 247/5/435 248/5/435 249/5/435
vn -0.577350 0.577350 0.577350
f 250/5/436 251/5/436 252/5/436
vn 0.577350 -0.577350 -0.577350
f 253/5/437 254/5/437 255/5/437
vn 0.577350 -0.577350 0.577350
f 256/5/438 257/5/438 258/5/438
vn 0.577350 0.577350 -0.577350
f 259/5/439 260/5/439 261/5/439
vn 0.577350 0.577350 0.577350
f 262/5/440 263/5/440 264/5/440
vn -0.707107 0.000000 -0.707107
f 247/5/441 241/5/441 243/5/441
vn -0.707107 0.000000 -0.707107
f 247/5/442 243/5/442 248/5/442
vn -0.707107 -0.707107 0.000000
f 242/5/443 244/5/443 246/5/443
vn -0.707107 -0.707107 0.000000
f 242/5/444 246/5/444 243/5/444
vn -0.707107 0.000000 0.707107
f 245/5/445 250/5/445 252/5/445
vn -0.707107 0.000000 0.707107
f 245/5/446 252/5/446 246/5/446
vn -0.707107 0.707107 0.000000
f 251/5/447 249/5/447 248/5/447
vn -0.707107 0.707107 0.000000
f 251/5/448 248/5/448 252/5/448
vn 0.000000 0.707107 -0.707107
f 259/5/449 247/5/449 249/5/449
vn 0.000000 0.707107 -0.707107
f 259/5/450 249/5/450 260/5/450
vn 0.000000 0.707107 0.707107
f 250/5/451 262/5/451 264/5/451
vn 0.000000 0.707107 0.707107
f 250/5/452 264/5/452 251/5/452
vn 0.707107 0.707107 0.000000
f 263/5/453 261/5/453 260/5/453
vn 0.707107 0.707107 0.000000
f 263/5/454 260/5/454 264/5/454
vn 0.707107 0.000000 -0.707107
f 253/5/455 259/5/455 261/5/455
vn 0.707107 0.000000 -0.707107
f 253/5/456 261/5/456 254/5/456
vn 0.707107 0.000000 0.707107
f 262/5/457 256/5/457 258/5/457
vn 0.707107 0.000000 0.707107
f 262/5/458 258/5/458 263/5/458
vn 0.707107 -0.707107 0.000000
f 257/5/459 255/5/459 254/5/459
vn 0.707107 -0.707107 0.000000
f 257/5/460 254/5/460 258/5/460
vn 0.000000 -0.707107 -0.707107
f 241/5/461 253/5/461 255/5/461
vn 0.000000 -0.707107 -0.707107
f 241/5/462 255/5/462 242/5/462
vn 0.000000 -0.707107 0.707107
f 256/5/463 245/5/463 244/5/463
vn 0.000000 -0.707107 0.707107
f 256/5/464 244/5/464 257/5/464
vn 0.000000 0.000000 -1.000000
f 247/5/465 259/5/465 253/5/465
vn 0.000000 0.000000 -1.000000
f 247/5/466 253/5/466 241/5/466
vn -1.000000 0.000000 0.000000
f 243/5/467 246/5/467 252/5/467
vn -1.000000 0.000000 0.000000
f 243/5/468 252/5/468 248/5/468
vn 0.000000 -1.000000 0.000000
f 255/5/469 257/5/469 244/5/469
vn 0.000000 -1.000000 0.000000
f 255/5/470 244/5/470 242/5/470
vn 0.000000 0.000000 1.000000
f 262/5/471 250/5/471 245/5/471
vn 0.000000 0.000000 1.000000
f 262/5/472 245/5/472 256/5/472
vn 0.000000 1.000000 0.000000
f 249/5/473 251/5/473 264/5/473
vn 0.000000 1.000000 0.000000
f 249/5/474 264/5/474 260/5/474
vn 1.000000 0.000000 0.000000
f 261/5/475 263/5/475 258/5/475
vn 1.000000 0.000000 0.000000
f 261/5/476 258/5/476 254/5/476
v 0.083000 0.070500 -0.159500
v 0.083000 0.067500 -0.156500
v 0.080000 0.070500 -0.156500
v 0.083000 0.067500 -0.137500
v 0.083000 0.070500 -0.134500
v 0.080000 0.070500 -0.137500
v 0.083000 0.089500 -0.159500
v 0.080000 0.089500 -0.156500
v 0.083000 0.092500 -0.156500
v 0.083000 0.089500 -0.134500
v 0.083000 0.092500 -0.137500
v 0.080000 0.089500 -0.137500
v 0.317000 0.070500 -0.159500
v 0.320000 0.070500 -0.156500
v 0.317000 0.067500 -0.156500
v 0.317000 0.070500 -0.134500
v 0.317000 0.067500 -0.137500
v 0.320000 0.070500 -0.137500
v 0.317000 0.089500 -0.159500
v 0.317000 0.092500 -0.156500
v 0.320000 0.089500 -0.156500
v 0.317000 0.089500 -0.134500
v 0.320000 0.089500 -0.137500
v 0.317000 0.092500 -0.137500
vn -0.577350 -0.577350 -0.577350
f 265/5/477 266/5/477 267/5/477
vn -0.577350 -0.577350 0.577350
f 268/5/478 269/5/478 270/5/478
vn -0.577350 0.577350 -0.577350
f 271/5/479 272/5/479 273/5/479
vn -0.577350 0.577350 0.577350
f 274/5/480 275/5/480 276/5/480
vn 0.577350 -0.577350 -0.577350
f 277/5/481 278/5/481 279/5/481
vn 0.577350 -0.577350 0.577350
f 280/5/482 281/5/482 282/5/482
vn 0.577350 0.577350 -0.577350
f 283/5/483 284/5/483 285/5/483
vn 0.577350 0.577350 0.577350
f 286/5/484 287/5/484 288/5/484
vn -0.707107 0.000000 -0.707107
f 271/5/485 265/5/485 267/5/485
vn -0.707107 0.000000 -0.707107
f 271/5/486 267/5/486 272/5/486
vn -0.707107 -0.707107 0.000000
f 266/5/487 268/5/487 270/5/487
vn -0.707107 -0.707107 0.000000
f 266/5/488 270/5/488 267/5/488
vn -0.707107 0.000000 0.707107
f 269/5/489 274/5/489 276/5/489
vn -0.707107 0.000000 0.707107
f 269/5/490 276/5/490 270/5/490
vn -0.707107 0.707107 0.000000
f 275/5/491 273/5/491 272/5/491
vn -0.707107 0.707107 0.000000
f 275/5/492 272/5/492 276/5/492
vn 0.000000 0.707107 -0.707107
f 283/5/493 271/5/493 273/5/493
vn 0.000000 0.707107 -0.707107
f 283/5/494 273/5/494 284/5/494
vn 0.000000 0.707107 0.707107
f 274/5/495 286/5/495 288/5/495
vn 0.000000 0.707107 0.707107
f 274/5/496 288/5/496 275/5/496
vn 0.707107 0.707107 0.000000
f 287/5/497 285/5/497 284/5/497
vn 0.707107 0.707107 0.000000
f 287/5/498 284/5/498 288/5/498
vn 0.707107 0.000000 -0.707107
f 277/5/499 283/5/499 285/5/499
vn 0.707107 0.000000 -0.707107
f 277/5/500 285/5/500 278/5/500
vn 0.707107 0.000000 0.707107
f 286/5/501 280/5/501 282/5/501
vn 0.707107 0.000000 0.707107
f 286/5/502 282/5/502 287/5/502
vn 0.707107 -0.707107 0.000000
f 281/5/503 279/5/503 278/5/503
vn 0.707107 -0.707107 0.000000
f 281/5/504 278/5/504 282/5/504
vn 0.000000 -0.707107 -0.707107
f 265/5/505 277/5/505 279/5/505
vn 0.000000 -0.707107 -0.707107
f 265/5/506 279/5/506 266/5/506
vn 0.000000 -0.707107 0.707107
f 280/5/507 269/5/507 268/5/507
vn 0.000000 -0.707107 0.707107
f 280/5/508 268/5/508 281/5/508
vn 0.000000 0.000000 -1.000000
f 271/5/509 283/5/509 277/5/509
vn 0.000000 0.000000 -1.000000
f 271/5/510 277/5/510 265/5/510
vn -1.000000 0.000000 0.000000
f 267/5/511 270/5/511 276/5/511
vn -1.000000 0.000000 0.000000
f 267/5/512 276/5/512 272/5/512
vn 0.000000 -1.000000 0.000000
f 279/5/513 281/5/513 268/5/513
vn 0.000000 -1.000000 0.000000
f 279/5/514 268/5/514 266/5/514
vn 0.000000 0.000000 1.000000
f 286/5/515 274/5/515 269/5/515
vn 0.000000 0.000000 1.000000
f 286/5/516 269/5/516 280/5/516
vn 0.000000 1.000000 0.000000
f 273/5/517 275/5/517 288/5/517
vn 0.000000 1.000000 0.000000
f 273/5/518 288/5/518 284/5/518
vn 1.000000 0.000000 0.000000
f 285/5/519 287/5/519 282/5/519
vn 1.000000 0.000000 0.000000
f 285/5/520 282/5/520 278/5/520
v 0.083000 0.150500 -0.159500
v 0.083000 0.147500 -0.156500
v 0.080000 0.150500 -0.156500
v 0.083000 0.147500 -0.137500
v 0.083000 0.150500 -0.134500
v 0.080000 0.150500 -0.137500
v 0.083000 0.169500 -0.159500
v 0.080000 0.169500 -0.156500
v 0.083000 0.172500 -0.156500
v 0.083000 0.169500 -0.134500
v 0.083000 0.172500 -0.137500
v 0.080000 0.169500 -0.137500
v 0.317000 0.150500 -0.159500
v 0.320000 0.150500 -0.156500
v 0.317000 0.147500 -0.156500
v 0.317000 0.150500 -0.134500
v 0.317000 0.147500 -0.137500
v 0.320000 0.150500 -0.137500
v 0.317000 0.169500 -0.159500
v 0.317000 0.172500 -0.156500
v 0.320000 0.169500 -0.156500
v 0.317000 0.169500 -0.134500
v 0.320000 0.169500 -0.137500
v 0.317000 0.172500 -0.137500
vn -0.577350 -0.577350 -0.577350
f 289/5/521 290/5/521 291/5/521
vn -0.577350 -0.577350 0.577350
f 292/5/522 293/5/522 294/5/522
vn -0.577350 0.577350 -0.577350
f 295/5/523 296/5/523 297/5/523
vn -0.577350 0.577350 0.577350
f 298/5/524 299/5/524 300/5/524
vn 0.577350 -0.577350 -0.577350
f 301/5/525 302/5/525 303/5/525
vn 0.577350 -0.577350 0.577350
f 304/5/526 305/5/526 306/5/526
vn 0.577350 0.577350 -0.577350
f 307/5/527 308/5/527 309/5/527
vn 0.577350 0.577350 0.577350
f 310/5/528 311/5/528 312/5/528
vn -0.707107 0.000000 -0.707107
f 295/5/529 289/5/529 291/5/529
vn -0.707107 0.000000 -0.707107
f 295/5/530 291/5/530 296/5/530
vn -0.707107 -0.707107 0.000000
f 290/5/531 292/5/531 294/5/531
vn -0.707107 -0.707107 0.000000
f 290/5/532 294/5/532 291/5/532
vn -0.707107 0.000000 0.707107
f 293/5/533 298/5/533 300/5/533
vn -0.707107 0.000000 0.707107
f 293/5/534 300/5/534 294/5/534
vn -0.707107 0.707107 0.000000
f 299/5/535 297/5/535 296/5/535
vn -0.707107 0.707107 0.000000
f 299/5/536 296/5/536 300/5/536
vn 0.000000 0.707107 -0.707107
f 307/5/537 295/5/537 297/5/537
vn 0.000000 0.707107 -0.707107
f 307/5/538 297/5/538 308/5/538
vn 0.000000 0.707107 0.707107
f 298/5/539 310/5/539 312/5/539
vn 0.000000 0.707107 0.707107
f 298/5/540 312/5/540 299/5/540
vn 0.707107 0.707107 0.000000
f 311/5/541 309/5/541 308/5/541
vn 0.707107 0.707107 0.000000
f 311/5/542 308/5/542 312/5/542
vn 0.707107 0.000000 -0.707107
f 301/5/543 307/5/543 309/5/543
vn 0.707107 0.000000 -0.707107
f 301/5/544 309/5/544 302/5/544
vn 0.707107 0.000000 0.707107
f 310/5/545 304/5/545 306/5/545
vn 0.707107 0.000000 0.707107
f 310/5/546 306/5/546 311/5/546
vn 0.707107 -0.707107 0.000000
f 305/5/547 303/5/547 302/5/547
vn 0.707107 -0.707107 0.000000
f 305/5/548 302/5/548 306/5/548
vn 0.000000 -0.707107 -0.707107
f 289/5/549 301/5/549 303/5/549
vn 0.000000 -0.707107 -0.707107
f 289/5/550 303/5/550 290/5/550
vn 0.000000 -0.707107 0.707107
f 304/5/551 293/5/551 292/5/551
vn 0.000000 -0.707107 0.707107
f 304/5/552 292/5/552 305/5/552
vn 0.000000 0.000000 -1.000000
f 295/5/553 307/5/553 301/5/553
vn 0.000000 0.000000 -1.000000
f 295/5/554 301/5/554 289/5/554
vn -1.000000 0.000000 0.000000
f 291/5/555 294/5/555 300/5/555
vn -1.000000 0.000000 0.000000
f 291/5/556 300/5/556 296/5/556
vn 0.000000 -1.000000 0.000000
f 303/5/557 305/5/557 292/5/557
vn 0.000000 -1.000000 0.000000
f 303/5/558 292/5/558 290/5/558
vn 0.000000 0.000000 1.000000
f 310/5/559 298/5/559 293/5/559
vn 0.000000 0.000000 1.000000
f 310/5/560 293/5/560 304/5/560
vn 0.000000 1.000000 0.000000
f 297/5/561 299/5/561 312/5/561
vn 0.000000 1.000000 0.000000
f 297/5/562 312/5/562 308/5/562
vn 1.000000 0.000000 0.000000
f 309/5/563 311/5/563 306/5/563
vn 1.000000 0.000000 0.000000
f 309/5/564 306/5/564 302/5/564
