# Maintenance kit; generated from Tools/Art/build_equipment.py
o ToolDock
vt 0.062500 0.5
vt 0.187500 0.5
vt 0.312500 0.5
vt 0.437500 0.5
vt 0.562500 0.5
vt 0.687500 0.5
vt 0.812500 0.5
vt 0.937500 0.5
v -0.410000 -0.430000 -0.125000
v -0.410000 -0.480000 -0.075000
v -0.460000 -0.430000 -0.075000
v -0.410000 -0.480000 0.075000
v -0.410000 -0.430000 0.125000
v -0.460000 -0.430000 0.075000
v -0.410000 0.430000 -0.125000
v -0.460000 0.430000 -0.075000
v -0.410000 0.480000 -0.075000
v -0.410000 0.430000 0.125000
v -0.410000 0.480000 0.075000
v -0.460000 0.430000 0.075000
v 0.410000 -0.430000 -0.125000
v 0.460000 -0.430000 -0.075000
v 0.410000 -0.480000 -0.075000
v 0.410000 -0.430000 0.125000
v 0.410000 -0.480000 0.075000
v 0.460000 -0.430000 0.075000
v 0.410000 0.430000 -0.125000
v 0.410000 0.480000 -0.075000
v 0.460000 0.430000 -0.075000
v 0.410000 0.430000 0.125000
v 0.460000 0.430000 0.075000
v 0.410000 0.480000 0.075000
vn -0.577350 -0.577350 -0.577350
f 1/1/1 2/1/1 3/1/1
vn -0.577350 -0.577350 0.577350
f 4/1/2 5/1/2 6/1/2
vn -0.577350 0.577350 -0.577350
f 7/1/3 8/1/3 9/1/3
vn -0.577350 0.577350 0.577350
f 10/1/4 11/1/4 12/1/4
vn 0.577350 -0.577350 -0.577350
f 13/1/5 14/1/5 15/1/5
vn 0.577350 -0.577350 0.577350
f 16/1/6 17/1/6 18/1/6
vn 0.577350 0.577350 -0.577350
f 19/1/7 20/1/7 21/1/7
vn 0.577350 0.577350 0.577350
f 22/1/8 23/1/8 24/1/8
vn -0.707107 0.000000 -0.707107
f 7/1/9 1/1/9 3/1/9
vn -0.707107 0.000000 -0.707107
f 7/1/10 3/1/10 8/1/10
vn -0.707107 -0.707107 0.000000
f 2/1/11 4/1/11 6/1/11
vn -0.707107 -0.707107 0.000000
f 2/1/12 6/1/12 3/1/12
vn -0.707107 0.000000 0.707107
f 5/1/13 10/1/13 12/1/13
vn -0.707107 0.000000 0.707107
f 5/1/14 12/1/14 6/1/14
vn -0.707107 0.707107 0.000000
f 11/1/15 9/1/15 8/1/15
vn -0.707107 0.707107 0.000000
f 11/1/16 8/1/16 12/1/16
vn 0.000000 0.707107 -0.707107
f 19/1/17 7/1/17 9/1/17
vn 0.000000 0.707107 -0.707107
f 19/1/18 9/1/18 20/1/18
vn 0.000000 0.707107 0.707107
f 10/1/19 22/1/19 24/1/19
vn 0.000000 0.707107 0.707107
f 10/1/20 24/1/20 11/1/20
vn 0.707107 0.707107 0.000000
f 23/1/21 21/1/21 20/1/21
vn 0.707107 0.707107 0.000000
f 23/1/22 20/1/22 24/1/22
vn 0.707107 0.000000 -0.707107
f 13/1/23 19/1/23 21/1/23
vn 0.707107 0.000000 -0.707107
f 13/1/24 21/1/24 14/1/24
vn 0.707107 0.000000 0.707107
f 22/1/25 16/1/25 18/1/25
vn 0.707107 0.000000 0.707107
f 22/1/26 18/1/26 23/1/26
vn 0.707107 -0.707107 0.000000
f 17/1/27 15/1/27 14/1/27
vn 0.707107 -0.707107 0.000000
f 17/1/28 14/1/28 18/1/28
vn 0.000000 -0.707107 -0.707107
f 1/1/29 13/1/29 15/1/29
vn 0.000000 -0.707107 -0.707107
f 1/1/30 15/1/30 2/1/30
vn 0.000000 -0.707107 0.707107
f 16/1/31 5/1/31 4/1/31
vn 0.000000 -0.707107 0.707107
f 16/1/32 4/1/32 17/1/32
vn 0.000000 0.000000 -1.000000
f 7/1/33 19/1/33 13/1/33
vn 0.000000 0.000000 -1.000000
f 7/1/34 13/1/34 1/1/34
vn -1.000000 0.000000 0.000000
f 3/1/35 6/1/35 12/1/35
vn -1.000000 0.000000 0.000000
f 3/1/36 12/1/36 8/1/36
vn 0.000000 -1.000000 0.000000
f 15/1/37 17/1/37 4/1/37
vn 0.000000 -1.000000 0.000000
f 15/1/38 4/1/38 2/1/38
vn 0.000000 0.000000 1.000000
f 22/1/39 10/1/39 5/1/39
vn 0.000000 0.000000 1.000000
f 22/1/40 5/1/40 16/1/40
vn 0.000000 1.000000 0.000000
f 9/1/41 11/1/41 24/1/41
vn 0.000000 1.000000 0.000000
f 9/1/42 24/1/42 20/1/42
vn 1.000000 0.000000 0.000000
f 21/1/43 23/1/43 18/1/43
vn 1.000000 0.000000 0.000000
f 21/1/44 18/1/44 14/1/44
v -0.435000 -0.455000 -0.340000
v -0.435000 -0.470000 -0.325000
v -0.450000 -0.455000 -0.325000
v -0.435000 -0.470000 -0.075000
v -0.435000 -0.455000 -0.060000
v -0.450000 -0.455000 -0.075000
v -0.435000 0.455000 -0.340000
v -0.450000 0.455000 -0.325000
v -0.435000 0.470000 -0.325000
v -0.435000 0.455000 -0.060000
v -0.435000 0.470000 -0.075000
v -0.450000 0.455000 -0.075000
v -0.345000 -0.455000 -0.340000
v -0.330000 -0.455000 -0.325000
v -0.345000 -0.470000 -0.325000
v -0.345000 -0.455000 -0.060000
v -0.345000 -0.470000 -0.075000
v -0.330000 -0.455000 -0.075000
v -0.345000 0.455000 -0.340000
v -0.345000 0.470000 -0.325000
v -0.330000 0.455000 -0.325000
v -0.345000 0.455000 -0.060000
v -0.330000 0.455000 -0.075000
v -0.345000 0.470000 -0.075000
vn -0.577350 -0.577351 -0.577350
f 25/2/45 26/2/45 27/2/45
vn -0.577350 -0.577351 0.577350
f 28/2/46 29/2/46 30/2/46
vn -0.577350 0.577351 -0.577350
f 31/2/47 32/2/47 33/2/47
vn -0.577350 0.577351 0.577350
f 34/2/48 35/2/48 36/2/48
vn 0.577350 -0.577351 -0.577350
f 37/2/49 38/2/49 39/2/49
vn 0.577350 -0.577351 0.577350
f 40/2/50 41/2/50 42/2/50
vn 0.577350 0.577351 -0.577350
f 43/2/51 44/2/51 45/2/51
vn 0.577350 0.577351 0.577350
f 46/2/52 47/2/52 48/2/52
vn -0.707107 0.000000 -0.707107
f 31/2/53 25/2/53 27/2/53
vn -0.707107 0.000000 -0.707107
f 31/2/54 27/2/54 32/2/54
vn -0.707106 -0.707107 0.000000
f 26/2/55 28/2/55 30/2/55
vn -0.707106 -0.707107 0.000000
f 26/2/56 30/2/56 27/2/56
vn -0.707107 0.000000 0.707107
f 29/2/57 34/2/57 36/2/57
vn -0.707107 0.000000 0.707107
f 29/2/58 36/2/58 30/2/58
vn -0.707106 0.707107 0.000000
f 35/2/59 33/2/59 32/2/59
vn -0.707106 0.707107 0.000000
f 35/2/60 32/2/60 36/2/60
vn 0.000000 0.707107 -0.707106
f 43/2/61 31/2/61 33/2/61
vn 0.000000 0.707107 -0.707106
f 43/2/62 33/2/62 44/2/62
vn 0.000000 0.707107 0.707106
f 34/2/63 46/2/63 48/2/63
vn 0.000000 0.707107 0.707106
f 34/2/64 48/2/64 35/2/64
vn 0.707106 0.707107 0.000000
f 47/2/65 45/2/65 44/2/65
vn 0.707106 0.707107 0.000000
f 47/2/66 44/2/66 48/2/66
vn 0.707107 0.000000 -0.707107
f 37/2/67 43/2/67 45/2/67
vn 0.707107 0.000000 -0.707107
f 37/2/68 45/2/68 38/2/68
vn 0.707107 0.000000 0.707107
f 46/2/69 40/2/69 42/2/69
vn 0.707107 0.000000 0.707107
f 46/2/70 42/2/70 47/2/70
vn 0.707106 -0.707107 0.000000
f 41/2/71 39/2/71 38/2/71
vn 0.707106 -0.707107 0.000000
f 41/2/72 38/2/72 42/2/72
vn 0.000000 -0.707107 -0.707106
f 25/2/73 37/2/73 39/2/73
vn 0.000000 -0.707107 -0.707106
f 25/2/74 39/2/74 26/2/74
vn 0.000000 -0.707107 0.707106
f 40/2/75 29/2/75 28/2/75
vn 0.000000 -0.707107 0.707106
f 40/2/76 28/2/76 41/2/76
vn 0.000000 0.000000 -1.000000
f 31/2/77 43/2/77 37/2/77
vn 0.000000 0.000000 -1.000000
f 31/2/78 37/2/78 25/2/78
vn -1.000000 0.000000 0.000000
f 27/2/79 30/2/79 36/2/79
vn -1.000000 0.000000 0.000000
f 27/2/80 36/2/80 32/2/80
vn 0.000000 -1.000000 0.000000
f 39/2/81 41/2/81 28/2/81
vn 0.000000 -1.000000 0.000000
f 39/2/82 28/2/82 26/2/82
vn 0.000000 0.000000 1.000000
f 46/2/83 34/2/83 29/2/83
vn 0.000000 0.000000 1.000000
f 46/2/84 29/2/84 40/2/84
vn 0.000000 1.000000 0.000000
f 33/2/85 35/2/85 48/2/85
vn 0.000000 1.000000 0.000000
f 33/2/86 48/2/86 44/2/86
vn 1.000000 0.000000 0.000000
f 45/2/87 47/2/87 42/2/87
vn 1.000000 0.000000 0.000000
f 45/2/88 42/2/88 38/2/88
v 0.345000 -0.455000 -0.340000
v 0.345000 -0.470000 -0.325000
v 0.330000 -0.455000 -0.325000
v 0.345000 -0.470000 -0.075000
v 0.345000 -0.455000 -0.060000
v 0.330000 -0.455000 -0.075000
v 0.345000 0.455000 -0.340000
v 0.330000 0.455000 -0.325000
v 0.345000 0.470000 -0.325000
v 0.345000 0.455000 -0.060000
v 0.345000 0.470000 -0.075000
v 0.330000 0.455000 -0.075000
v 0.435000 -0.455000 -0.340000
v 0.450000 -0.455000 -0.325000
v 0.435000 -0.470000 -0.325000
v 0.435000 -0.455000 -0.060000
v 0.435000 -0.470000 -0.075000
v 0.450000 -0.455000 -0.075000
v 0.435000 0.455000 -0.340000
v 0.435000 0.470000 -0.325000
v 0.450000 0.455000 -0.325000
v 0.435000 0.455000 -0.060000
v 0.450000 0.455000 -0.075000
v 0.435000 0.470000 -0.075000
vn -0.577350 -0.577351 -0.577350
f 49/2/89 50/2/89 51/2/89
vn -0.577350 -0.577351 0.577350
f 52/2/90 53/2/90 54/2/90
vn -0.577350 0.577351 -0.577350
f 55/2/91 56/2/91 57/2/91
vn -0.577350 0.577351 0.577350
f 58/2/92 59/2/92 60/2/92
vn 0.577350 -0.577351 -0.577350
f 61/2/93 62/2/93 63/2/93
vn 0.577350 -0.577351 0.577350
f 64/2/94 65/2/94 66/2/94
vn 0.577350 0.577351 -0.577350
f 67/2/95 68/2/95 69/2/95
vn 0.577350 0.577351 0.577350
f 70/2/96 71/2/96 72/2/96
vn -0.707107 0.000000 -0.707107
f 55/2/97 49/2/97 51/2/97
vn -0.707107 0.000000 -0.707107
f 55/2/98 51/2/98 56/2/98
vn -0.707106 -0.707107 0.000000
f 50/2/99 52/2/99 54/2/99
vn -0.707106 -0.707107 0.000000
f 50/2/100 54/2/100 51/2/100
vn -0.707107 0.000000 0.707107
f 53/2/101 58/2/101 60/2/101
vn -0.707107 0.000000 0.707107
f 53/2/102 60/2/102 54/2/102
vn -0.707106 0.707107 0.000000
f 59/2/103 57/2/103 56/2/103
vn -0.707106 0.707107 0.000000
f 59/2/104 56/2/104 60/2/104
vn 0.000000 0.707107 -0.707106
f 67/2/105 55/2/105 57/2/105
vn 0.000000 0.707107 -0.707106
f 67/2/106 57/2/106 68/2/106
vn 0.000000 0.707107 0.707106
f 58/2/107 70/2/107 72/2/107
vn 0.000000 0.707107 0.707106
f 58/2/108 72/2/108 59/2/108
vn 0.707106 0.707107 0.000000
f 71/2/109 69/2/109 68/2/109
vn 0.707106 0.707107 0.000000
f 71/2/110 68/2/110 72/2/110
vn 0.707107 0.000000 -0.707107
f 61/2/111 67/2/111 69/2/111
vn 0.707107 0.000000 -0.707107
f 61/2/112 69/2/112 62/2/112
vn 0.707107 0.000000 0.707107
f 70/2/113 64/2/113 66/2/113
vn 0.707107 0.000000 0.707107
f 70/2/114 66/2/114 71/2/114
vn 0.707106 -0.707107 0.000000
f 65/2/115 63/2/115 62/2/115
vn 0.707106 -0.707107 0.000000
f 65/2/116 62/2/116 66/2/116
vn 0.000000 -0.707107 -0.707106
f 49/2/117 61/2/117 63/2/117
vn 0.000000 -0.707107 -0.707106
f 49/2/118 63/2/118 50/2/118
vn 0.000000 -0.707107 0.707106
f 64/2/119 53/2/119 52/2/119
vn 0.000000 -0.707107 0.707106
f 64/2/120 52/2/120 65/2/120
vn 0.000000 0.000000 -1.000000
f 55/2/121 67/2/121 61/2/121
vn 0.000000 0.000000 -1.000000
f 55/2/122 61/2/122 49/2/122
vn -1.000000 0.000000 0.000000
f 51/2/123 54/2/123 60/2/123
vn -1.000000 0.000000 0.000000
f 51/2/124 60/2/124 56/2/124
vn 0.000000 -1.000000 0.000000
f 63/2/125 65/2/125 52/2/125
vn 0.000000 -1.000000 0.000000
f 63/2/126 52/2/126 50/2/126
vn 0.000000 0.000000 1.000000
f 70/2/127 58/2/127 53/2/127
vn 0.000000 0.000000 1.000000
f 70/2/128 53/2/128 64/2/128
vn 0.000000 1.000000 0.000000
f 57/2/129 59/2/129 72/2/129
vn 0.000000 1.000000 0.000000
f 57/2/130 72/2/130 68/2/130
vn 1.000000 0.000000 0.000000
f 69/2/131 71/2/131 66/2/131
vn 1.000000 0.000000 0.000000
f 69/2/132 66/2/132 62/2/132
v -0.330000 -0.425000 -0.295000
v -0.330000 -0.440000 -0.280000
v -0.345000 -0.425000 -0.280000
v -0.330000 -0.440000 -0.100000
v -0.330000 -0.425000 -0.085000
v -0.345000 -0.425000 -0.100000
v -0.330000 -0.355000 -0.295000
v -0.345000 -0.355000 -0.280000
v -0.330000 -0.340000 -0.280000
v -0.330000 -0.355000 -0.085000
v -0.330000 -0.340000 -0.100000
v -0.345000 -0.355000 -0.100000
v 0.330000 -0.425000 -0.295000
v 0.345000 -0.425000 -0.280000
v 0.330000 -0.440000 -0.280000
v 0.330000 -0.425000 -0.085000
v 0.330000 -0.440000 -0.100000
v 0.345000 -0.425000 -0.100000
v 0.330000 -0.355000 -0.295000
v 0.330000 -0.340000 -0.280000
v 0.345000 -0.355000 -0.280000
v 0.330000 -0.355000 -0.085000
v 0.345000 -0.355000 -0.100000
v 0.330000 -0.340000 -0.100000
vn -0.577351 -0.577350 -0.577350
f 73/3/133 74/3/133 75/3/133
vn -0.577351 -0.577350 0.577350
f 76/3/134 77/3/134 78/3/134
vn -0.577351 0.577350 -0.577350
f 79/3/135 80/3/135 81/3/135
vn -0.577351 0.577350 0.577350
f 82/3/136 83/3/136 84/3/136
vn 0.577351 -0.577350 -0.577350
f 85/3/137 86/3/137 87/3/137
vn 0.577351 -0.577350 0.577350
f 88/3/138 89/3/138 90/3/138
vn 0.577351 0.577350 -0.577350
f 91/3/139 92/3/139 93/3/139
vn 0.577351 0.577350 0.577350
f 94/3/140 95/3/140 96/3/140
vn -0.707107 0.000000 -0.707106
f 79/3/141 73/3/141 75/3/141
vn -0.707107 0.000000 -0.707106
f 79/3/142 75/3/142 80/3/142
vn -0.707107 -0.707107 0.000000
f 74/3/143 76/3/143 78/3/143
vn -0.707107 -0.707107 0.000000
f 74/3/144 78/3/144 75/3/144
vn -0.707107 0.000000 0.707106
f 77/3/145 82/3/145 84/3/145
vn -0.707107 0.000000 0.707106
f 77/3/146 84/3/146 78/3/146
vn -0.707107 0.707107 0.000000
f 83/3/147 81/3/147 80/3/147
vn -0.707107 0.707107 0.000000
f 83/3/148 80/3/148 84/3/148
vn 0.000000 0.707107 -0.707107
f 91/3/149 79/3/149 81/3/149
vn 0.000000 0.707107 -0.707107
f 91/3/150 81/3/150 92/3/150
vn 0.000000 0.707107 0.707107
f 82/3/151 94/3/151 96/3/151
vn 0.000000 0.707107 0.707107
f 82/3/152 96/3/152 83/3/152
vn 0.707107 0.707107 0.000000
f 95/3/153 93/3/153 92/3/153
vn 0.707107 0.707107 0.000000
f 95/3/154 92/3/154 96/3/154
vn 0.707107 0.000000 -0.707106
f 85/3/155 91/3/155 93/3/155
vn 0.707107 0.000000 -0.707106
f 85/3/156 93/3/156 86/3/156
vn 0.707107 0.000000 0.707106
f 94/3/157 88/3/157 90/3/157
vn 0.707107 0.000000 0.707106
f 94/3/158 90/3/158 95/3/158
vn 0.707107 -0.707107 0.000000
f 89/3/159 87/3/159 86/3/159
vn 0.707107 -0.707107 0.000000
f 89/3/160 86/3/160 90/3/160
vn 0.000000 -0.707107 -0.707107
f 73/3/161 85/3/161 87/3/161
vn 0.000000 -0.707107 -0.707107
f 73/3/162 87/3/162 74/3/162
vn 0.000000 -0.707107 0.707107
f 88/3/163 77/3/163 76/3/163
vn 0.000000 -0.707107 0.707107
f 88/3/164 76/3/164 89/3/164
vn 0.000000 0.000000 -1.000000
f 79/3/165 91/3/165 85/3/165
vn 0.000000 0.000000 -1.000000
f 79/3/166 85/3/166 73/3/166
vn -1.000000 0.000000 0.000000
f 75/3/167 78/3/167 84/3/167
vn -1.000000 0.000000 0.000000
f 75/3/168 84/3/168 80/3/168
vn 0.000000 -1.000000 0.000000
f 87/3/169 89/3/169 76/3/169
vn 0.000000 -1.000000 0.000000
f 87/3/170 76/3/170 74/3/170
vn 0.000000 0.000000 1.000000
f 94/3/171 82/3/171 77/3/171
vn 0.000000 0.000000 1.000000
f 94/3/172 77/3/172 88/3/172
vn 0.000000 1.000000 0.000000
f 81/3/173 83/3/173 96/3/173
vn 0.000000 1.000000 0.000000
f 81/3/174 96/3/174 92/3/174
vn 1.000000 0.000000 0.000000
f 93/3/175 95/3/175 90/3/175
vn 1.000000 0.000000 0.000000
f 93/3/176 90/3/176 86/3/176
v -0.330000 0.355000 -0.295000
v -0.330000 0.340000 -0.280000
v -0.345000 0.355000 -0.280000
v -0.330000 0.340000 -0.100000
v -0.330000 0.355000 -0.085000
v -0.345000 0.355000 -0.100000
v -0.330000 0.425000 -0.295000
v -0.345000 0.425000 -0.280000
v -0.330000 0.440000 -0.280000
v -0.330000 0.425000 -0.085000
v -0.330000 0.440000 -0.100000
v -0.345000 0.425000 -0.100000
v 0.330000 0.355000 -0.295000
v 0.345000 0.355000 -0.280000
v 0.330000 0.340000 -0.280000
v 0.330000 0.355000 -0.085000
v 0.330000 0.340000 -0.100000
v 0.345000 0.355000 -0.100000
v 0.330000 0.425000 -0.295000
v 0.330000 0.440000 -0.280000
v 0.345000 0.425000 -0.280000
v 0.330000 0.425000 -0.085000
v 0.345000 0.425000 -0.100000
v 0.330000 0.440000 -0.100000
vn -0.577351 -0.577350 -0.577350
f 97/3/177 98/3/177 99/3/177
vn -0.577351 -0.577350 0.577350
f 100/3/178 101/3/178 102/3/178
vn -0.577351 0.577350 -0.577350
f 103/3/179 104/3/179 105/3/179
vn -0.577351 0.577350 0.577350
f 106/3/180 107/3/180 108/3/180
vn 0.577351 -0.577350 -0.577350
f 109/3/181 110/3/181 111/3/181
vn 0.577351 -0.577350 0.577350
f 112/3/182 113/3/182 114/3/182
vn 0.577351 0.577350 -0.577350
f 115/3/183 116/3/183 117/3/183
vn 0.577351 0.577350 0.577350
f 118/3/184 119/3/184 120/3/184
vn -0.707107 0.000000 -0.707106
f 103/3/185 97/3/185 99/3/185
vn -0.707107 0.000000 -0.707106
f 103/3/186 99/3/186 104/3/186
vn -0.707107 -0.707107 0.000000
f 98/3/187 100/3/187 102/3/187
vn -0.707107 -0.707107 0.000000
f 98/3/188 102/3/188 99/3/188
vn -0.707107 0.000000 0.707106
f 101/3/189 106/3/189 108/3/189
vn -0.707107 0.000000 0.707106
f 101/3/190 108/3/190 102/3/190
vn -0.707107 0.707107 0.000000
f 107/3/191 105/3/191 104/3/191
vn -0.707107 0.707107 0.000000
f 107/3/192 104/3/192 108/3/192
vn 0.000000 0.707107 -0.707107
f 115/3/193 103/3/193 105/3/193
vn 0.000000 0.707107 -0.707107
f 115/3/194 105/3/194 116/3/194
vn 0.000000 0.707107 0.707107
f 106/3/195 118/3/195 120/3/195
vn 0.000000 0.707107 0.707107
f 106/3/196 120/3/196 107/3/196
vn 0.707107 0.707107 0.000000
f 119/3/197 117/3/197 116/3/197
vn 0.707107 0.707107 0.000000
f 119/3/198 116/3/198 120/3/198
vn 0.707107 0.000000 -0.707106
f 109/3/199 115/3/199 117/3/199
vn 0.707107 0.000000 -0.707106
f 109/3/200 117/3/200 110/3/200
vn 0.707107 0.000000 0.707106
f 118/3/201 112/3/201 114/3/201
vn 0.707107 0.000000 0.707106
f 118/3/202 114/3/202 119/3/202
vn 0.707107 -0.707107 0.000000
f 113/3/203 111/3/203 110/3/203
vn 0.707107 -0.707107 0.000000
f 113/3/204 110/3/204 114/3/204
vn 0.000000 -0.707107 -0.707107
f 97/3/205 109/3/205 111/3/205
vn 0.000000 -0.707107 -0.707107
f 97/3/206 111/3/206 98/3/206
vn 0.000000 -0.707107 0.707107
f 112/3/207 101/3/207 100/3/207
vn 0.000000 -0.707107 0.707107
f 112/3/208 100/3/208 113/3/208
vn 0.000000 0.000000 -1.000000
f 103/3/209 115/3/209 109/3/209
vn 0.000000 0.000000 -1.000000
f 103/3/210 109/3/210 97/3/210
vn -1.000000 0.000000 0.000000
f 99/3/211 102/3/211 108/3/211
vn -1.000000 0.000000 0.000000
f 99/3/212 108/3/212 104/3/212
vn 0.000000 -1.000000 0.000000
f 111/3/213 113/3/213 100/3/213
vn 0.000000 -1.000000 0.000000
f 111/3/214 100/3/214 98/3/214
vn 0.000000 0.000000 1.000000
f 118/3/215 106/3/215 101/3/215
vn 0.000000 0.000000 1.000000
f 118/3/216 101/3/216 112/3/216
vn 0.000000 1.000000 0.000000
f 105/3/217 107/3/217 120/3/217
vn 0.000000 1.000000 0.000000
f 105/3/218 120/3/218 116/3/218
vn 1.000000 0.000000 0.000000
f 117/3/219 119/3/219 114/3/219
vn 1.000000 0.000000 0.000000
f 117/3/220 114/3/220 110/3/220
v -0.238000 -0.198000 -0.146500
v -0.238000 -0.200000 -0.144500
v -0.240000 -0.198000 -0.144500
v -0.238000 -0.200000 -0.123500
v -0.238000 -0.198000 -0.121500
v -0.240000 -0.198000 -0.123500
v -0.238000 -0.162000 -0.146500
v -0.240000 -0.162000 -0.144500
v -0.238000 -0.160000 -0.144500
v -0.238000 -0.162000 -0.121500
v -0.238000 -0.160000 -0.123500
v -0.240000 -0.162000 -0.123500
v 0.238000 -0.198000 -0.146500
v 0.240000 -0.198000 -0.144500
v 0.238000 -0.200000 -0.144500
v 0.238000 -0.198000 -0.121500
v 0.238000 -0.200000 -0.123500
v 0.240000 -0.198000 -0.123500
v 0.238000 -0.162000 -0.146500
v 0.238000 -0.160000 -0.144500
v 0.240000 -0.162000 -0.144500
v 0.238000 -0.162000 -0.121500
v 0.240000 -0.162000 -0.123500
v 0.238000 -0.160000 -0.123500
vn -0.577350 -0.577351 -0.577351
f 121/5/221 122/5/221 123/5/221
vn -0.577350 -0.577351 0.577351
f 124/5/222 125/5/222 126/5/222
vn -0.577350 0.577351 -0.577351
f 127/5/223 128/5/223 129/5/223
vn -0.577350 0.577351 0.577351
f 130/5/224 131/5/224 132/5/224
vn 0.577350 -0.577351 -0.577351
f 133/5/225 134/5/225 135/5/225
vn 0.577350 -0.577351 0.577351
f 136/5/226 137/5/226 138/5/226
vn 0.577350 0.577351 -0.577351
f 139/5/227 140/5/227 141/5/227
vn 0.577350 0.577351 0.577351
f 142/5/228 143/5/228 144/5/228
vn -0.707106 0.000000 -0.707107
f 127/5/229 121/5/229 123/5/229
vn -0.707106 0.000000 -0.707107
f 127/5/230 123/5/230 128/5/230
vn -0.707106 -0.707107 0.000000
f 122/5/231 124/5/231 126/5/231
vn -0.707106 -0.707107 0.000000
f 122/5/232 126/5/232 123/5/232
vn -0.707106 0.000000 0.707107
f 125/5/233 130/5/233 132/5/233
vn -0.707106 0.000000 0.707107
f 125/5/234 132/5/234 126/5/234
vn -0.707106 0.707107 0.000000
f 131/5/235 129/5/235 128/5/235
vn -0.707106 0.707107 0.000000
f 131/5/236 128/5/236 132/5/236
vn 0.000000 0.707107 -0.707107
f 139/5/237 127/5/237 129/5/237
vn 0.000000 0.707107 -0.707107
f 139/5/238 129/5/238 140/5/238
vn 0.000000 0.707107 0.707107
f 130/5/239 142/5/239 144/5/239
vn 0.000000 0.707107 0.707107
f 130/5/240 144/5/240 131/5/240
vn 0.707106 0.707107 0.000000
f 143/5/241 141/5/241 140/5/241
vn 0.707106 0.707107 0.000000
f 143/5/242 140/5/242 144/5/242
vn 0.707106 0.000000 -0.707107
f 133/5/243 139/5/243 141/5/243
vn 0.707106 0.000000 -0.707107
f 133/5/244 141/5/244 134/5/244
vn 0.707106 0.000000 0.707107
f 142/5/245 136/5/245 138/5/245
vn 0.707106 0.000000 0.707107
f 142/5/246 138/5/246 143/5/246
vn 0.707106 -0.707107 0.000000
f 137/5/247 135/5/247 134/5/247
vn 0.707106 -0.707107 0.000000
f 137/5/248 134/5/248 138/5/248
vn 0.000000 -0.707107 -0.707107
f 121/5/249 133/5/249 135/5/249
vn 0.000000 -0.707107 -0.707107
f 121/5/250 135/5/250 122/5/250
vn 0.000000 -0.707107 0.707107
f 136/5/251 125/5/251 124/5/251
vn 0.000000 -0.707107 0.707107
f 136/5/252 124/5/252 137/5/252
vn 0.000000 0.000000 -1.000000
f 127/5/253 139/5/253 133/5/253
vn 0.000000 0.000000 -1.000000
f 127/5/254 133/5/254 121/5/254
vn -1.000000 0.000000 0.000000
f 123/5/255 126/5/255 132/5/255
vn -1.000000 0.000000 0.000000
f 123/5/256 132/5/256 128/5/256
vn 0.000000 -1.000000 0.000000
f 135/5/257 137/5/257 124/5/257
vn 0.000000 -1.000000 0.000000
f 135/5/258 124/5/258 122/5/258
vn 0.000000 0.000000 1.000000
f 142/5/259 130/5/259 125/5/259
vn 0.000000 0.000000 1.000000
f 142/5/260 125/5/260 136/5/260
vn 0.000000 1.000000 0.000000
f 129/5/261 131/5/261 144/5/261
vn 0.000000 1.000000 0.000000
f 129/5/262 144/5/262 140/5/262
vn 1.000000 0.000000 0.000000
f 141/5/263 143/5/263 138/5/263
vn 1.000000 0.000000 0.000000
f 141/5/264 138/5/264 134/5/264
v -0.238000 0.022000 -0.146500
v -0.238000 0.020000 -0.144500
v -0.240000 0.022000 -0.144500
v -0.238000 0.020000 -0.123500
v -0.238000 0.022000 -0.121500
v -0.240000 0.022000 -0.123500
v -0.238000 0.058000 -0.146500
v -0.240000 0.058000 -0.144500
v -0.238000 0.060000 -0.144500
v -0.238000 0.058000 -0.121500
v -0.238000 0.060000 -0.123500
v -0.240000 0.058000 -0.123500
v 0.238000 0.022000 -0.146500
v 0.240000 0.022000 -0.144500
v 0.238000 0.020000 -0.144500
v 0.238000 0.022000 -0.121500
v 0.238000 0.020000 -0.123500
v 0.240000 0.022000 -0.123500
v 0.238000 0.058000 -0.146500
v 0.238000 0.060000 -0.144500
v 0.240000 0.058000 -0.144500
v 0.238000 0.058000 -0.121500
v 0.240000 0.058000 -0.123500
v 0.238000 0.060000 -0.123500
vn -0.577350 -0.577351 -0.577351
f 145/5/265 146/5/265 147/5/265
vn -0.577350 -0.577351 0.577351
f 148/5/266 149/5/266 150/5/266
vn -0.577350 0.577351 -0.577351
f 151/5/267 152/5/267 153/5/267
vn -0.577350 0.577351 0.577351
f 154/5/268 155/5/268 156/5/268
vn 0.577350 -0.577351 -0.577351
f 157/5/269 158/5/269 159/5/269
vn 0.577350 -0.577351 0.577351
f 160/5/270 161/5/270 162/5/270
vn 0.577350 0.577351 -0.577351
f 163/5/271 164/5/271 165/5/271
vn 0.577350 0.577351 0.577351
f 166/5/272 167/5/272 168/5/272
vn -0.707106 0.000000 -0.707107
f 151/5/273 145/5/273 147/5/273
vn -0.707106 0.000000 -0.707107
f 151/5/274 147/5/274 152/5/274
vn -0.707106 -0.707107 0.000000
f 146/5/275 148/5/275 150/5/275
vn -0.707106 -0.707107 0.000000
f 146/5/276 150/5/276 147/5/276
vn -0.707106 0.000000 0.707107
f 149/5/277 154/5/277 156/5/277
vn -0.707106 0.000000 0.707107
f 149/5/278 156/5/278 150/5/278
vn -0.707106 0.707107 0.000000
f 155/5/279 153/5/279 152/5/279
vn -0.707106 0.707107 0.000000
f 155/5/280 152/5/280 156/5/280
vn 0.000000 0.707107 -0.707107
f 163/5/281 151/5/281 153/5/281
vn 0.000000 0.707107 -0.707107
f 163/5/282 153/5/282 164/5/282
vn 0.000000 0.707107 0.707107
f 154/5/283 166/5/283 168/5/283
vn 0.000000 0.707107 0.707107
f 154/5/284 168/5/284 155/5/284
vn 0.707106 0.707107 0.000000
f 167/5/285 165/5/285 164/5/285
vn 0.707106 0.707107 0.000000
f 167/5/286 164/5/286 168/5/286
vn 0.707106 0.000000 -0.707107
f 157/5/287 163/5/287 165/5/287
vn 0.707106 0.000000 -0.707107
f 157/5/288 165/5/288 158/5/288
vn 0.707106 0.000000 0.707107
f 166/5/289 160/5/289 162/5/289
vn 0.707106 0.000000 0.707107
f 166/5/290 162/5/290 167/5/290
vn 0.707106 -0.707107 0.000000
f 161/5/291 159/5/291 158/5/291
vn 0.707106 -0.707107 0.000000
f 161/5/292 158/5/292 162/5/292
vn 0.000000 -0.707107 -0.707107
f 145/5/293 157/5/293 159/5/293
vn 0.000000 -0.707107 -0.707107
f 145/5/294 159/5/294 146/5/294
vn 0.000000 -0.707107 0.707107
f 160/5/295 149/5/295 148/5/295
vn 0.000000 -0.707107 0.707107
f 160/5/296 148/5/296 161/5/296
vn 0.000000 0.000000 -1.000000
f 151/5/297 163/5/297 157/5/297
vn 0.000000 0.000000 -1.000000
f 151/5/298 157/5/298 145/5/298
vn -1.000000 0.000000 0.000000
f 147/5/299 150/5/299 156/5/299
vn -1.000000 0.000000 0.000000
f 147/5/300 156/5/300 152/5/300
vn 0.000000 -1.000000 0.000000
f 159/5/301 161/5/301 148/5/301
vn 0.000000 -1.000000 0.000000
f 159/5/302 148/5/302 146/5/302
vn 0.000000 0.000000 1.000000
f 166/5/303 154/5/303 149/5/303
vn 0.000000 0.000000 1.000000
f 166/5/304 149/5/304 160/5/304
vn 0.000000 1.000000 0.000000
f 153/5/305 155/5/305 168/5/305
vn 0.000000 1.000000 0.000000
f 153/5/306 168/5/306 164/5/306
vn 1.000000 0.000000 0.000000
f 165/5/307 167/5/307 162/5/307
vn 1.000000 0.000000 0.000000
f 165/5/308 162/5/308 158/5/308
v -0.238000 0.242000 -0.146500
v -0.238000 0.240000 -0.144500
v -0.240000 0.242000 -0.144500
v -0.238000 0.240000 -0.123500
v -0.238000 0.242000 -0.121500
v -0.240000 0.242000 -0.123500
v -0.238000 0.278000 -0.146500
v -0.240000 0.278000 -0.144500
v -0.238000 0.280000 -0.144500
v -0.238000 0.278000 -0.121500
v -0.238000 0.280000 -0.123500
v -0.240000 0.278000 -0.123500
v 0.238000 0.242000 -0.146500
v 0.240000 0.242000 -0.144500
v 0.238000 0.240000 -0.144500
v 0.238000 0.242000 -0.121500
v 0.238000 0.240000 -0.123500
v 0.240000 0.242000 -0.123500
v 0.238000 0.278000 -0.146500
v 0.238000 0.280000 -0.144500
v 0.240000 0.278000 -0.144500
v 0.238000 0.278000 -0.121500
v 0.240000 0.278000 -0.123500
v 0.238000 0.280000 -0.123500
vn -0.577350 -0.577351 -0.577351
f 169/5/309 170/5/309 171/5/309
vn -0.577350 -0.577351 0.577351
f 172/5/310 173/5/310 174/5/310
vn -0.577350 0.577351 -0.577351
f 175/5/311 176/5/311 177/5/311
vn -0.577350 0.577351 0.577351
f 178/5/312 179/5/312 180/5/312
vn 0.577350 -0.577351 -0.577351
f 181/5/313 182/5/313 183/5/313
vn 0.577350 -0.577351 0.577351
f 184/5/314 185/5/314 186/5/314
vn 0.577350 0.577351 -0.577351
f 187/5/315 188/5/315 189/5/315
vn 0.577350 0.577351 0.577351
f 190/5/316 191/5/316 192/5/316
vn -0.707106 0.000000 -0.707107
f 175/5/317 169/5/317 171/5/317
vn -0.707106 0.000000 -0.707107
f 175/5/318 171/5/318 176/5/318
vn -0.707106 -0.707107 0.000000
f 170/5/319 172/5/319 174/5/319
vn -0.707106 -0.707107 0.000000
f 170/5/320 174/5/320 171/5/320
vn -0.707106 0.000000 0.707107
f 173/5/321 178/5/321 180/5/321
vn -0.707106 0.000000 0.707107
f 173/5/322 180/5/322 174/5/322
vn -0.707106 0.707107 0.000000
f 179/5/323 177/5/323 176/5/323
vn -0.707106 0.707107 0.000000
f 179/5/324 176/5/324 180/5/324
vn 0.000000 0.707107 -0.707107
f 187/5/325 175/5/325 177/5/325
vn 0.000000 0.707107 -0.707107
f 187/5/326 177/5/326 188/5/326
vn 0.000000 0.707107 0.707107
f 178/5/327 190/5/327 192/5/327
vn 0.000000 0.707107 0.707107
f 178/5/328 192/5/328 179/5/328
vn 0.707106 0.707107 0.000000
f 191/5/329 189/5/329 188/5/329
vn 0.707106 0.707107 0.000000
f 191/5/330 188/5/330 192/5/330
vn 0.707106 0.000000 -0.707107
f 181/5/331 187/5/331 189/5/331
vn 0.707106 0.000000 -0.707107
f 181/5/332 189/5/332 182/5/332
vn 0.707106 0.000000 0.707107
f 190/5/333 184/5/333 186/5/333
vn 0.707106 0.000000 0.707107
f 190/5/334 186/5/334 191/5/334
vn 0.707106 -0.707107 0.000000
f 185/5/335 183/5/335 182/5/335
vn 0.707106 -0.707107 0.000000
f 185/5/336 182/5/336 186/5/336
vn 0.000000 -0.707107 -0.707107
f 169/5/337 181/5/337 183/5/337
vn 0.000000 -0.707107 -0.707107
f 169/5/338 183/5/338 170/5/338
vn 0.000000 -0.707107 0.707107
f 184/5/339 173/5/339 172/5/339
vn 0.000000 -0.707107 0.707107
f 184/5/340 172/5/340 185/5/340
vn 0.000000 0.000000 -1.000000
f 175/5/341 187/5/341 181/5/341
vn 0.000000 0.000000 -1.000000
f 175/5/342 181/5/342 169/5/342
vn -1.000000 0.000000 0.000000
f 171/5/343 174/5/343 180/5/343
vn -1.000000 0.000000 0.000000
f 171/5/344 180/5/344 176/5/344
vn 0.000000 -1.000000 0.000000
f 183/5/345 185/5/345 172/5/345
vn 0.000000 -1.000000 0.000000
f 183/5/346 172/5/346 170/5/346
vn 0.000000 0.000000 1.000000
f 190/5/347 178/5/347 173/5/347
vn 0.000000 0.000000 1.000000
f 190/5/348 173/5/348 184/5/348
vn 0.000000 1.000000 0.000000
f 177/5/349 179/5/349 192/5/349
vn 0.000000 1.000000 0.000000
f 177/5/350 192/5/350 188/5/350
vn 1.000000 0.000000 0.000000
f 189/5/351 191/5/351 186/5/351
vn 1.000000 0.000000 0.000000
f 189/5/352 186/5/352 182/5/352
v -0.148000 0.374500 -0.314000
v -0.148000 0.372500 -0.312000
v -0.150000 0.374500 -0.312000
v -0.148000 0.372500 -0.298000
v -0.148000 0.374500 -0.296000
v -0.150000 0.374500 -0.298000
v -0.148000 0.405500 -0.314000
v -0.150000 0.405500 -0.312000
v -0.148000 0.407500 -0.312000
v -0.148000 0.405500 -0.296000
v -0.148000 0.407500 -0.298000
v -0.150000 0.405500 -0.298000
v 0.148000 0.374500 -0.314000
v 0.150000 0.374500 -0.312000
v 0.148000 0.372500 -0.312000
v 0.148000 0.374500 -0.296000
v 0.148000 0.372500 -0.298000
v 0.150000 0.374500 -0.298000
v 0.148000 0.405500 -0.314000
v 0.148000 0.407500 -0.312000
v 0.150000 0.405500 -0.312000
v 0.148000 0.405500 -0.296000
v 0.150000 0.405500 -0.298000
v 0.148000 0.407500 -0.298000
vn -0.577350 -0.577351 -0.577351
f 193/6/353 194/6/353 195/6/353
vn -0.577350 -0.577351 0.577351
f 196/6/354 197/6/354 198/6/354
vn -0.577350 0.577351 -0.577351
f 199/6/355 200/6/355 201/6/355
vn -0.577350 0.577351 0.577351
f 202/6/356 203/6/356 204/6/356
vn 0.577350 -0.577351 -0.577351
f 205/6/357 206/6/357 207/6/357
vn 0.577350 -0.577351 0.577351
f 208/6/358 209/6/358 210/6/358
vn 0.577350 0.577351 -0.577351
f 211/6/359 212/6/359 213/6/359
vn 0.577350 0.577351 0.577351
f 214/6/360 215/6/360 216/6/360
vn -0.707106 0.000000 -0.707107
f 199/6/361 193/6/361 195/6/361
vn -0.707106 0.000000 -0.707107
f 199/6/362 195/6/362 200/6/362
vn -0.707106 -0.707107 0.000000
f 194/6/363 196/6/363 198/6/363
vn -0.707106 -0.707107 0.000000
f 194/6/364 198/6/364 195/6/364
vn -0.707106 0.000000 0.707107
f 197/6/365 202/6/365 204/6/365
vn -0.707106 0.000000 0.707107
f 197/6/366 204/6/366 198/6/366
vn -0.707106 0.707107 0.000000
f 203/6/367 201/6/367 200/6/367
vn -0.707106 0.707107 0.000000
f 203/6/368 200/6/368 204/6/368
vn 0.000000 0.707107 -0.707107
f 211/6/369 199/6/369 201/6/369
vn 0.000000 0.707107 -0.707107
f 211/6/370 201/6/370 212/6/370
vn 0.000000 0.707107 0.707107
f 202/6/371 214/6/371 216/6/371
vn 0.000000 0.707107 0.707107
f 202/6/372 216/6/372 203/6/372
vn 0.707106 0.707107 0.000000
f 215/6/373 213/6/373 212/6/373
vn 0.707106 0.707107 0.000000
f 215/6/374 212/6/374 216/6/374
vn 0.707106 0.000000 -0.707107
f 205/6/375 211/6/375 213/6/375
vn 0.707106 0.000000 -0.707107
f 205/6/376 213/6/376 206/6/376
vn 0.707106 0.000000 0.707107
f 214/6/377 208/6/377 210/6/377
vn 0.707106 0.000000 0.707107
f 214/6/378 210/6/378 215/6/378
vn 0.707106 -0.707107 0.000000
f 209/6/379 207/6/379 206/6/379
vn 0.707106 -0.707107 0.000000
f 209/6/380 206/6/380 210/6/380
vn 0.000000 -0.707107 -0.707107
f 193/6/381 205/6/381 207/6/381
vn 0.000000 -0.707107 -0.707107
f 193/6/382 207/6/382 194/6/382
vn 0.000000 -0.707107 0.707107
f 208/6/383 197/6/383 196/6/383
vn 0.000000 -0.707107 0.707107
f 208/6/384 196/6/384 209/6/384
vn 0.000000 0.000000 -1.000000
f 199/6/385 211/6/385 205/6/385
vn 0.000000 0.000000 -1.000000
f 199/6/386 205/6/386 193/6/386
vn -1.000000 0.000000 0.000000
f 195/6/387 198/6/387 204/6/387
vn -1.000000 0.000000 0.000000
f 195/6/388 204/6/388 200/6/388
vn 0.000000 -1.000000 0.000000
f 207/6/389 209/6/389 196/6/389
vn 0.000000 -1.000000 0.000000
f 207/6/390 196/6/390 194/6/390
vn 0.000000 0.000000 1.000000
f 214/6/391 202/6/391 197/6/391
vn 0.000000 0.000000 1.000000
f 214/6/392 197/6/392 208/6/392
vn 0.000000 1.000000 0.000000
f 201/6/393 203/6/393 216/6/393
vn 0.000000 1.000000 0.000000
f 201/6/394 216/6/394 212/6/394
vn 1.000000 0.000000 0.000000
f 213/6/395 215/6/395 210/6/395
vn 1.000000 0.000000 0.000000
f 213/6/396 210/6/396 206/6/396
v -0.305000 -0.180000 -0.350000
v -0.305000 -0.195000 -0.335000
v -0.320000 -0.180000 -0.335000
v -0.305000 -0.195000 -0.205000
v -0.305000 -0.180000 -0.190000
v -0.320000 -0.180000 -0.205000
v -0.305000 -0.020000 -0.350000
v -0.320000 -0.020000 -0.335000
v -0.305000 -0.005000 -0.335000
v -0.305000 -0.020000 -0.190000
v -0.305000 -0.005000 -0.205000
v -0.320000 -0.020000 -0.205000
v -0.255000 -0.180000 -0.350000
v -0.240000 -0.180000 -0.335000
v -0.255000 -0.195000 -0.335000
v -0.255000 -0.180000 -0.190000
v -0.255000 -0.195000 -0.205000
v -0.240000 -0.180000 -0.205000
v -0.255000 -0.020000 -0.350000
v -0.255000 -0.005000 -0.335000
v -0.240000 -0.020000 -0.335000
v -0.255000 -0.020000 -0.190000
v -0.240000 -0.020000 -0.205000
v -0.255000 -0.005000 -0.205000
vn -0.577350 -0.577350 -0.577350
f 217/4/397 218/4/397 219/4/397
vn -0.577350 -0.577350 0.577350
f 220/4/398 221/4/398 222/4/398
vn -0.577350 0.577350 -0.577350
f 223/4/399 224/4/399 225/4/399
vn -0.577350 0.577350 0.577350
f 226/4/400 227/4/400 228/4/400
vn 0.577350 -0.577350 -0.577350
f 229/4/401 230/4/401 231/4/401
vn 0.577350 -0.577350 0.577350
f 232/4/402 233/4/402 234/4/402
vn 0.577350 0.577350 -0.577350
f 235/4/403 236/4/403 237/4/403
vn 0.577350 0.577350 0.577350
f 238/4/404 239/4/404 240/4/404
vn -0.707107 0.000000 -0.707107
f 223/4/405 217/4/405 219/4/405
vn -0.707107 0.000000 -0.707107
f 223/4/406 219/4/406 224/4/406
vn -0.707107 -0.707107 0.000000
f 218/4/407 220/4/407 222/4/407
vn -0.707107 -0.707107 0.000000
f 218/4/408 222/4/408 219/4/408
vn -0.707107 -0.000000 0.707107
f 221/4/409 226/4/409 228/4/409
vn -0.707107 0.000000 0.707107
f 221/4/410 228/4/410 222/4/410
vn -0.707107 0.707107 0.000000
f 227/4/411 225/4/411 224/4/411
vn -0.707107 0.707107 0.000000
f 227/4/412 224/4/412 228/4/412
vn 0.000000 0.707107 -0.707107
f 235/4/413 223/4/413 225/4/413
vn 0.000000 0.707107 -0.707107
f 235/4/414 225/4/414 236/4/414
vn 0.000000 0.707107 0.707107
f 226/4/415 238/4/415 240/4/415
vn 0.000000 0.707107 0.707107
f 226/4/416 240/4/416 227/4/416
vn 0.707107 0.707107 0.000000
f 239/4/417 237/4/417 236/4/417
vn 0.707107 0.707107 0.000000
f 239/4/418 236/4/418 240/4/418
vn 0.707107 -0.000000 -0.707107
f 229/4/419 235/4/419 237/4/419
vn 0.707107 0.000000 -0.707107
f 229/4/420 237/4/420 230/4/420
vn 0.707107 0.000000 0.707107
f 238/4/421 232/4/421 234/4/421
vn 0.707107 0.000000 0.707107
f 238/4/422 234/4/422 239/4/422
vn 0.707107 -0.707107 0.000000
f 233/4/423 231/4/423 230/4/423
vn 0.707107 -0.707107 0.000000
f 233/4/424 230/4/424 234/4/424
vn 0.000000 -0.707107 -0.707107
f 217/4/425 229/4/425 231/4/425
vn 0.000000 -0.707107 -0.707107
f 217/4/426 231/4/426 218/4/426
vn 0.000000 -0.707107 0.707107
f 232/4/427 221/4/427 220/4/427
vn 0.000000 -0.707107 0.707107
f 232/4/428 220/4/428 233/4/428
vn 0.000000 0.000000 -1.000000
f 223/4/429 235/4/429 229/4/429
vn 0.000000 0.000000 -1.000000
f 223/4/430 229/4/430 217/4/430
vn -1.000000 0.000000 0.000000
f 219/4/431 222/4/431 228/4/431
vn -1.000000 0.000000 0.000000
f 219/4/432 228/4/432 224/4/432
vn 0.000000 -1.000000 0.000000
f 231/4/433 233/4/433 220/4/433
vn 0.000000 -1.000000 0.000000
f 231/4/434 220/4/434 218/4/434
vn 0.000000 0.000000 1.000000
f 238/4/435 226/4/435 221/4/435
vn 0.000000 0.000000 1.000000
f 238/4/436 221/4/436 232/4/436
vn 0.000000 1.000000 0.000000
f 225/4/437 227/4/437 240/4/437
vn 0.000000 1.000000 0.000000
f 225/4/438 240/4/438 236/4/438
vn 1.000000 0.000000 0.000000
f 237/4/439 239/4/439 234/4/439
vn 1.000000 0.000000 0.000000
f 237/4/440 234/4/440 230/4/440
v 0.255000 -0.180000 -0.350000
v 0.255000 -0.195000 -0.335000
v 0.240000 -0.180000 -0.335000
v 0.255000 -0.195000 -0.205000
v 0.255000 -0.180000 -0.190000
v 0.240000 -0.180000 -0.205000
v 0.255000 -0.020000 -0.350000
v 0.240000 -0.020000 -0.335000
v 0.255000 -0.005000 -0.335000
v 0.255000 -0.020000 -0.190000
v 0.255000 -0.005000 -0.205000
v 0.240000 -0.020000 -0.205000
v 0.305000 -0.180000 -0.350000
v 0.320000 -0.180000 -0.335000
v 0.305000 -0.195000 -0.335000
v 0.305000 -0.180000 -0.190000
v 0.305000 -0.195000 -0.205000
v 0.320000 -0.180000 -0.205000
v 0.305000 -0.020000 -0.350000
v 0.305000 -0.005000 -0.335000
v 0.320000 -0.020000 -0.335000
v 0.305000 -0.020000 -0.190000
v 0.320000 -0.020000 -0.205000
v 0.305000 -0.005000 -0.205000
vn -0.577350 -0.577350 -0.577350
f 241/4/441 242/4/441 243/4/441
vn -0.577350 -0.577350 0.577350
f 244/4/442 245/4/442 246/4/442
vn -0.577350 0.577350 -0.577350
f 247/4/443 248/4/443 249/4/443
vn -0.577350 0.577350 0.577350
f 250/4/444 251/4/444 252/4/444
vn 0.577350 -0.577350 -0.577350
f 253/4/445 254/4/445 255/4/445
vn 0.577350 -0.577350 0.577350
f 256/4/446 257/4/446 258/4/446
vn 0.577350 0.577350 -0.577350
f 259/4/447 260/4/447 261/4/447
vn 0.577350 0.577350 0.577350
f 262/4/448 263/4/448 264/4/448
vn -0.707107 0.000000 -0.707107
f 247/4/449 241/4/449 243/4/449
vn -0.707107 0.000000 -0.707107
f 247/4/450 243/4/450 248/4/450
vn -0.707107 -0.707107 0.000000
f 242/4/451 244/4/451 246/4/451
vn -0.707107 -0.707107 0.000000
f 242/4/452 246/4/452 243/4/452
vn -0.707107 -0.000000 0.707107
f 245/4/453 250/4/453 252/4/453
vn -0.707107 0.000000 0.707107
f 245/4/454 252/4/454 246/4/454
vn -0.707107 0.707107 0.000000
f 251/4/455 249/4/455 248/4/455
vn -0.707107 0.707107 0.000000
f 251/4/456 248/4/456 252/4/456
vn 0.000000 0.707107 -0.707107
f 259/4/457 247/4/457 249/4/457
vn 0.000000 0.707107 -0.707107
f 259/4/458 249/4/458 260/4/458
vn 0.000000 0.707107 0.707107
f 250/4/459 262/4/459 264/4/459
vn 0.000000 0.707107 0.707107
f 250/4/460 264/4/460 251/4/460
vn 0.707107 0.707107 0.000000
f 263/4/461 261/4/461 260/4/461
vn 0.707107 0.707107 0.000000
f 263/4/462 260/4/462 264/4/462
vn 0.707107 -0.000000 -0.707107
f 253/4/463 259/4/463 261/4/463
vn 0.707107 0.000000 -0.707107
f 253/4/464 261/4/464 254/4/464
vn 0.707107 0.000000 0.707107
f 262/4/465 256/4/465 258/4/465
vn 0.707107 0.000000 0.707107
f 262/4/466 258/4/466 263/4/466
vn 0.707107 -0.707107 0.000000
f 257/4/467 255/4/467 254/4/467
vn 0.707107 -0.707107 0.000000
f 257/4/468 254/4/468 258/4/468
vn 0.000000 -0.707107 -0.707107
f 241/4/469 253/4/469 255/4/469
vn 0.000000 -0.707107 -0.707107
f 241/4/470 255/4/470 242/4/470
vn 0.000000 -0.707107 0.707107
f 256/4/471 245/4/471 244/4/471
vn 0.000000 -0.707107 0.707107
f 256/4/472 244/4/472 257/4/472
vn 0.000000 0.000000 -1.000000
f 247/4/473 259/4/473 253/4/473
vn 0.000000 0.000000 -1.000000
f 247/4/474 253/4/474 241/4/474
vn -1.000000 0.000000 0.000000
f 243/4/475 246/4/475 252/4/475
vn -1.000000 0.000000 0.000000
f 243/4/476 252/4/476 248/4/476
vn 0.000000 -1.000000 0.000000
f 255/4/477 257/4/477 244/4/477
vn 0.000000 -1.000000 0.000000
f 255/4/478 244/4/478 242/4/478
vn 0.000000 0.000000 1.000000
f 262/4/479 250/4/479 245/4/479
vn 0.000000 0.000000 1.000000
f 262/4/480 245/4/480 256/4/480
vn 0.000000 1.000000 0.000000
f 249/4/481 251/4/481 264/4/481
vn 0.000000 1.000000 0.000000
f 249/4/482 264/4/482 260/4/482
vn 1.000000 0.000000 0.000000
f 261/4/483 263/4/483 258/4/483
vn 1.000000 0.000000 0.000000
f 261/4/484 258/4/484 254/4/484
